<?xml version="1.0" encoding="UTF-8"?>
<!DOCTYPE svg PUBLIC "-//W3C//DTD SVG 1.1//EN" "http://www.w3.org/Graphics/SVG/1.1/DTD/svg11.dtd">
<!-- Creator: CorelDRAW 2018 (64 Bit) -->
<svg xmlns="http://www.w3.org/2000/svg" xml:space="preserve" width="164.64mm" height="156.212mm" version="1.1" style="shape-rendering:geometricPrecision; text-rendering:geometricPrecision; image-rendering:optimizeQuality; fill-rule:evenodd; clip-rule:evenodd"
viewBox="0 0 4366.11 4142.6"
 xmlns:xlink="http://www.w3.org/1999/xlink">
 <defs>
  <style type="text/css">
   <![CDATA[
    .fil6 {fill:#FEFEFE}
    .fil8 {fill:#FEFEFE}
    .fil0 {fill:#373435}
    .fil7 {fill:#ED3237}
    .fil4 {fill:#2372B8}
    .fil3 {fill:#00AFEF}
    .fil5 {fill:#31518B}
    .fil10 {fill:#FEFEFE;fill-rule:nonzero}
    .fil9 {fill:#373435;fill-rule:nonzero}
    .fil2 {fill:#91D8F7;fill-rule:nonzero}
    .fil1 {fill:url(#id0);fill-rule:nonzero}
   ]]>
  </style>
  <linearGradient id="id0" gradientUnits="userSpaceOnUse" x1="1955.35" y1="1586.52" x2="1955.35" y2="46.5">
   <stop offset="0" style="stop-opacity:1; stop-color:#2EB054"/>
   <stop offset="0.0392157" style="stop-opacity:1; stop-color:#2372B8"/>
   <stop offset="1" style="stop-opacity:1; stop-color:#00AFEF"/>
  </linearGradient>
 </defs>
 <g id="Capa_x0020_1">
  <metadata id="CorelCorpID_0Corel-Layer"/>
  <g id="_2847542208112">
   <g>
    <path class="fil0" d="M1408.17 202.58l5.16 -139.02 51.58 -63.56 115.95 7.15c38.27,2.36 76.94,3.4 115.27,4.9 58.36,2.28 116.71,4.7 175.02,7.83 64.62,3.47 129.85,7.46 194.16,14.67 29,3.25 96.63,10.48 120.21,27.6 17.58,12.76 34,40.5 40.86,61.12 4.26,12.83 14.8,35.09 23.67,44.97 9.15,10.19 24.12,22.74 35.55,30.35 12.27,8.17 25.39,16.58 38.28,23.72 14.54,8.05 32.6,24.63 44,37.06 13.04,14.21 26.52,30.23 37.85,45.84 5.65,7.78 19.21,18.83 28.07,22.53 32.4,13.56 62.77,32.77 72.63,68.81 2.2,8.05 15.28,22.27 22.06,27.48 18.22,14.01 36.56,27.9 54.96,41.68 14.89,11.16 31.51,23.36 47.44,32.93 12.47,7.48 24.94,15.35 37.06,23.39 11.72,7.79 25.89,20.15 35.14,30.75 8.72,9.97 18.12,19.9 27.49,29.27 12.37,12.36 23.98,35.2 28.81,52.09 4.32,15.12 8.68,30.26 13.23,45.32 3.25,10.78 13.08,27.71 19.63,37.17 9.49,13.71 19.45,27.61 29.7,40.77 14.35,18.41 16.15,58.65 14.48,81.94l0 20.63c2.17,18.56 6.75,41.44 12.23,59.05 2.42,7.77 9.6,27.71 14.65,33.77 9.41,11.29 19.09,29.23 25.78,42.59 11.23,22.43 25.89,39.33 42.41,57.67 9.8,7.04 17.11,8.87 29.37,11.72 20.95,4.86 45.64,23.85 58.88,40.73 11.52,14.68 24.91,30.35 38.1,43.55 9.02,9.03 25.36,20.39 36.95,25.74 9.42,4.34 27.9,7.08 38.16,5.64 23.6,-3.32 50.78,8.4 60.88,30.57 3.85,7.05 20.78,15.47 28.69,17.67 21.1,5.88 49.7,21.07 64.41,37.24 8.94,9.83 30.5,21.62 43.23,25.86 11.46,3.81 22.97,7.58 34.4,11.48l10.38 3.54 7.96 20.45 -5.26 9.63c-88.65,162.35 -177.36,324.66 -265.94,487.04l119 568.31 -57.97 68.38 -13.05 -4.86c-13.39,-4.99 -26.74,-10.22 -40.1,-15.3 -23.37,-8.89 -47.47,-18.62 -70.12,-29.18 -12.21,-5.7 -33.5,-12.13 -46.86,-13.09 -10.14,-0.73 -28.16,2.55 -37.23,7.09 -12.25,6.12 -32.65,27.77 -41.41,39.05 -19.1,24.56 -38.09,49.23 -56.93,73.99 -12.52,16.46 -37.39,46.14 -54.92,55.83 -18.28,10.11 -43.5,6.99 -59.21,-6.63 -10.95,-9.51 -22.22,-18.89 -33.55,-27.95 -10,-8 -33.65,-16.99 -46.38,-20.34 -17.12,-4.5 -39.24,-9.31 -56.73,-10.65 -17.06,-1.31 -34.12,-2.68 -51.19,-3.87 -8.85,-0.59 -38.65,4.93 -47.19,8.11 -22.68,8.45 -54.63,6.65 -72.44,-11.12 -9,-8.98 -27.35,-20.3 -39.01,-25.75 -21.75,-10.18 -47.04,-26.16 -66.61,-40.3 -17.26,-12.48 -40.84,-27.02 -60.35,-35.54 -19.03,-8.31 -38.66,-17.63 -56.93,-27.48 -2.52,-1.36 -7.5,-3.09 -11.32,-3.35 -2.31,9.67 -5.77,18.93 -10.1,28.48 -3.61,7.96 -9.46,18.55 -11.12,27.04 -0.28,1.43 -0.44,2.87 -0.44,4.33 0,21.55 -17.22,40.71 -36.75,48.18 -0.07,0.68 -0.1,1.35 -0.1,2.03 0,22.36 -18.54,42.15 -38.96,48.98l-7.44 2.48 0.71 2.9c4.04,16.1 4.25,39.72 -0.12,55.71 -4.47,16.34 -16.46,38.05 -26.71,51.7 -4.83,6.43 -12.09,15.24 -19.84,22.5 -3.52,6.96 -7.53,13.82 -11.51,19.88 -0.04,0.93 -0.06,1.76 -0.06,2.46 0,16.7 -3.17,40.95 -9.31,56.31 -5.92,14.82 -21.86,33.29 -35.4,46.26 -0.46,1.37 -0.95,2.69 -1.45,3.96 -7.01,17.54 -28.07,40.23 -42.57,52.81 -21.44,18.61 -59.78,29.17 -87.93,26.65 -8.34,-0.75 -29.06,-1.24 -37.67,1.65 -3.38,2.83 -6.78,5.71 -10.22,8.47l-8.02 6.41 -20.32 -3 -5.82 -8.46c-5.67,-8.24 -11.35,-16.48 -17.05,-24.7 -11.24,-16.21 -22.5,-34.31 -31.84,-51.68 -5.3,-9.85 -20.89,-23.12 -31.04,-27.85 -19.24,-8.96 -42.17,-28.81 -42.17,-51.84 0,-4.26 -2.66,-13.26 -5.12,-16.71 -8.08,-11.33 -14.31,-29.88 -15.64,-43.45 -0.9,-4.05 -7.08,-10.37 -10.31,-12.15 -7.79,-3.74 -18.73,-7.14 -27.01,-9.93 -5.75,-1.94 -14.3,-5.05 -21.13,-6.69l-1.3 0.53 -7.08 -1.51c-22.25,-4.73 -47.08,-11.28 -68.36,-19.28 -22.1,-8.3 -45.49,-29.73 -47.55,-54.33 -2.75,-32.94 -4.09,-66.69 -5.75,-99.73 -0.24,-4.86 -0.63,-9.72 -1.14,-14.56 -1.53,-14.56 -9.42,-60.75 -19.27,-71.48 -15.88,-17.23 -30.63,-47.94 -34.48,-71.05 -1.95,-11.68 -17.38,-25.37 -28.28,-29.18 -20.68,-7.23 -50.93,-24.16 -60.89,-44.13 -1.42,-2.84 -6.82,-7.43 -9.79,-7.98 -10.34,-1.04 -28.03,1.2 -38.39,3.41 -28.85,6.16 -26.3,9.22 -56.11,-0.68 -18.64,-6.19 -42.82,-32.23 -54.95,-47.84 -18.37,-23.64 -27.23,-62.61 -11.11,-89.42 4.06,-6.75 10.43,-23.68 8.91,-31.08 -4.45,-16.19 -5.7,-40.37 -4.58,-57.27 0.7,-10.51 -11.8,-29.46 -19.23,-36.4 -19.7,-18.39 -38.13,-52.92 -43.17,-79.38 -1.5,-7.88 -5.85,-16.21 -10.49,-22.72 -3.86,-5.42 -10.27,-12.65 -16.39,-15.55 -30.77,-14.53 -56.16,-66.59 -65.79,-98.15 -8.43,-27.61 -20.7,-87.7 5.94,-109.04 5.75,-4.61 13.17,-9.29 21.03,-13.44 1.28,-15.22 5.79,-28.74 15.82,-36.77 13.07,-10.47 34.64,-21.33 50.88,-25.38 17.48,-4.36 43.89,-4.68 61.91,-2.43 16.62,2.08 38.28,8.42 55.93,15.68 -4.06,-13.93 -7.65,-28.38 -10.4,-42.08 -4.21,-20.99 -6.17,-47.8 -6.17,-69.31 0,-36.5 -0.98,-73.29 -1.9,-109.78 -0.2,-7.92 -0.45,-15.84 -0.74,-23.76 -0.97,-26.2 -1.74,-54.59 -4.81,-80.6 -2.58,-21.93 -0.75,-51.95 4.88,-73.3 5.52,-20.92 11.93,-42.48 19.14,-62.87 3.87,-10.96 6.61,-24.15 9.1,-35.52 4.1,-18.69 7.71,-37.55 10.97,-56.4 1.26,-7.27 2.46,-14.55 3.59,-21.85 2.65,-17.01 5.03,-34.08 7.25,-51.16 3.84,-29.49 7.67,-59.81 9.64,-89.47 2.84,-42.7 3.76,-86.92 3.76,-129.72 0,-17.62 -3.15,-70.25 -11.25,-83.95 -5.69,-8.54 -20.54,-19.8 -30.2,-23.26 -20.31,-7.27 -45.46,-26.65 -59.43,-42.96 -14.67,-17.13 -29.32,-34.27 -43.87,-51.49 -24.5,-29 -10.26,-121.61 -3.23,-155.88 7.61,-37.06 15.2,-74.11 22.82,-111.16l1.77 -8.61 50.81 -60.92 231.42 13.85z"/>
    <path class="fil1" d="M1465.76 229.65l-281.63 -16.86c0,0 -10.25,49.98 -22.82,111.15 -12.54,61.13 -13.35,122.32 -1.85,135.92 11.5,13.62 31.21,36.71 43.77,51.38 12.53,14.64 34.81,30.89 49.47,36.1 14.67,5.29 33.5,19.83 41.87,32.37 8.37,12.55 15.22,56.21 15.22,97.04 0,40.79 -1.71,99.89 -3.8,131.29 -2.08,31.41 -9.8,95.59 -17.12,142.69 -7.32,47.11 -18.46,100.2 -24.74,118 -6.09,17.18 -14.26,44.12 -18.58,61.04 -4.88,17.91 -6.44,46.11 -4.26,64.52 2.08,17.74 4.68,65.69 5.7,106.52 1.05,40.84 1.91,90.5 1.91,110.38 0,19.89 2.55,48.96 5.71,64.67 3.13,15.68 9.98,41.38 15.2,57.08 5.23,15.69 0.1,40.55 -11.4,55.19 -11.52,14.63 -34.64,19.79 -51.38,11.41 -16.73,-8.35 -44.15,-16.95 -60.87,-19.04 -16.75,-2.08 -40.71,-1.2 -53.28,1.91 -12.56,3.16 -31.4,12.54 -41.86,20.91 -10.48,8.41 -9.6,46.08 1.87,83.75 11.51,37.63 35.51,75.3 53.31,83.72 9.07,4.27 18.19,12.91 25.52,23.18 7.01,9.84 12.34,21.27 14.46,32 4.12,21.97 20.41,51.94 36.1,66.57 15.7,14.69 27.69,39.5 26.67,55.2 -1.07,15.69 0.63,37.94 3.79,49.46 3.17,11.53 -1.99,33.76 -11.43,49.47 -9.42,15.68 -5.13,43.93 9.52,62.81 14.64,18.81 34.33,36.79 43.76,39.93 24.36,8.08 16.2,5.88 43.76,0 14.65,-3.14 35.21,-4.88 45.67,-3.81 10.44,1.03 23.32,10.46 28.54,20.92 5.22,10.48 26.65,25.04 47.58,32.4 20.92,7.27 40.61,28.69 43.75,47.56 3.15,18.8 15.99,45.34 28.56,58.95 12.53,13.61 24.52,58.97 26.63,100.84 2.11,41.83 4.66,86.41 5.7,98.95 1.07,12.54 15.61,27.95 32.35,34.23 15.84,5.97 44.22,13.88 64.96,18.29 1.86,-2.78 56.12,16.27 62.51,19.75 11.5,6.31 21.78,19.97 22.84,30.42 1.02,10.5 6.17,25.05 11.42,32.4 5.21,7.33 9.5,21.03 9.5,30.41 0,9.43 12.85,23.14 28.55,30.47 15.7,7.3 34.54,24.45 41.84,38.05 7.33,13.6 21.04,35.87 30.46,49.41 9.41,13.61 17.1,24.78 17.1,24.78 0,0 5.17,-4.28 11.44,-9.49 6.27,-5.22 30.23,-7.78 53.28,-5.69 22.98,2.03 54.67,-7.34 70.38,-20.97 15.69,-13.61 31.96,-33.29 36.13,-43.75 4.18,-10.44 7.63,-31.84 7.63,-47.56 0,-15.7 4.26,-30.28 9.5,-32.36 5.27,-2.06 17.21,-14.1 26.65,-26.64 9.42,-12.55 19.7,-32.22 22.82,-43.76 3.18,-11.53 3.18,-31.17 0,-43.75 -3.12,-12.55 -6.57,-31.39 -7.59,-41.86 -1.03,-10.45 8.38,-22.44 20.94,-26.62 12.53,-4.17 33.1,-11.03 45.62,-15.23 12.56,-4.19 22.86,-16.18 22.86,-26.61 0,-25.49 22.57,-44.68 24.75,-81.86 1.03,-17.79 7.87,-33.17 15.21,-34.24 7.3,-1.06 19.31,-7.06 26.6,-13.34 7.36,-6.26 24.5,-5.39 38.05,1.96 13.62,7.29 38.47,19.29 55.18,26.63 16.78,7.28 45.87,24.43 64.73,38.03 18.81,13.61 47.12,30.71 62.8,38.05 15.66,7.33 36.2,21.03 45.67,30.42 9.39,9.42 30.78,11.98 47.56,5.71 12.1,-4.49 45.95,-10.27 57.06,-9.54 14.67,1.08 37.75,2.81 51.35,3.88 13.61,1.01 41.01,6.17 60.92,11.36 19.88,5.27 44.67,16.36 55.12,24.73 10.52,8.4 25.88,21.27 34.27,28.56 8.39,7.28 22.9,9.01 32.34,3.81 9.44,-5.23 30.84,-27.49 47.57,-49.48 16.73,-21.97 42.42,-55.36 57.09,-74.19 14.65,-18.85 36.91,-39.38 49.48,-45.66 12.53,-6.27 34.79,-10.59 49.47,-9.52 14.65,1.03 39.45,7.91 55.13,15.24 15.72,7.31 46.56,20.17 68.54,28.51 21.98,8.37 39.95,15.24 39.95,15.24l-117.93 -563.18c89.96,-164.92 180.06,-329.79 270.1,-494.68 0,0 -15.38,-5.16 -34.24,-11.43 -18.81,-6.26 -42.77,-20.84 -53.23,-32.36 -10.46,-11.48 -34.47,-25.19 -53.29,-30.39 -18.85,-5.29 -38.5,-18.95 -43.75,-30.48 -5.25,-11.51 -21.49,-19.18 -36.2,-17.14 -14.61,2.08 -37.71,-1.3 -51.32,-7.57 -13.61,-6.27 -33.31,-19.98 -43.76,-30.48 -10.48,-10.45 -28.45,-30.98 -39.97,-45.66 -11.48,-14.63 -32.07,-29.17 -45.66,-32.32 -16.84,-3.92 -26.41,-6.87 -39.96,-17.14 -19,-21.05 -34.59,-38.82 -47.57,-64.66 -7.31,-14.7 -17.62,-31.79 -22.81,-38.05 -7.47,-8.93 -15.62,-30.91 -19.04,-41.86 -5.2,-16.77 -11.19,-45.91 -13.3,-64.71l0 -22.86c2.11,-27.17 -2.16,-57.14 -9.49,-66.57 -7.36,-9.43 -21.07,-28.29 -30.49,-41.85 -9.38,-13.62 -19.64,-33.32 -22.81,-43.78 -3.15,-10.49 -9.14,-31.02 -13.32,-45.65 -4.19,-14.67 -14.45,-33.5 -22.8,-41.89 -8.43,-8.37 -21.25,-22.07 -28.58,-30.43 -7.29,-8.36 -20.98,-20.35 -30.44,-26.62 -9.42,-6.26 -25.69,-16.58 -36.15,-22.81 -10.44,-6.31 -32.74,-21.73 -49.44,-34.27 -16.78,-12.54 -41.58,-31.41 -55.19,-41.86 -13.63,-10.49 -27.28,-28.48 -30.43,-39.95 -7.69,-28.14 -33.94,-42.8 -58.99,-53.28 -12.54,-5.25 -29.69,-18.91 -38.04,-30.43 -8.37,-11.51 -24.62,-31.21 -36.15,-43.75 -11.52,-12.58 -28.6,-27.13 -38.05,-32.37 -9.41,-5.2 -27.44,-16.36 -39.93,-24.72 -12.61,-8.35 -30.59,-23.78 -40.03,-34.23 -9.37,-10.5 -22.24,-34.42 -28.5,-53.28 -6.28,-18.87 -20.81,-41.12 -32.33,-49.48 -49.5,-35.93 -497.97,-44.71 -592.26,-50.54l-106.03 -6.54 -7.62 205.5z"/>
    <path class="fil2" d="M1264.11 1514.2c1.94,6.87 3.91,13.38 5.68,18.73 5.23,15.69 0.1,40.55 -11.4,55.19 -11.52,14.63 -34.64,19.79 -51.38,11.41 -6.65,-3.32 -14.99,-6.68 -23.67,-9.65 9.34,107.24 519.52,193.69 1147.62,193.69 314.57,0 599.54,-21.69 806.88,-56.81 45.79,-83.9 91.62,-167.79 137.44,-251.69 -207.17,-51.27 -552.82,-84.86 -944.32,-84.86 -484.08,0 -898.14,51.35 -1066.86,123.99z"/>
    <path class="fil3" d="M2330.97 1415.17c482.54,0 873.71,71.29 873.71,159.22 0,87.94 -391.17,159.22 -873.71,159.22 -482.54,0 -873.71,-71.29 -873.71,-159.22 0,-87.94 391.17,-159.22 873.71,-159.22z"/>
    <path class="fil4" d="M2330.97 1433.47c355.54,0 643.77,56.18 643.77,125.47 0,69.3 -288.23,125.48 -643.77,125.48 -355.54,0 -643.77,-56.18 -643.77,-125.48 0,-69.3 288.23,-125.47 643.77,-125.47z"/>
    <path class="fil5" d="M2330.97 1461.63c219.56,0 397.55,38.08 397.55,85.05 0,46.97 -177.99,85.05 -397.55,85.05 -219.56,0 -397.55,-38.08 -397.55,-85.05 0,-46.97 177.99,-85.05 397.55,-85.05z"/>
    <path class="fil6" d="M2288.44 1567.07c-12.38,-25.84 -27.86,-51.7 -42.42,-76.38 -23,-38.97 -46.6,-77.61 -70.06,-116.3 -60.38,-99.55 -120.3,-199.36 -176.46,-301.37 -74.5,-135.33 -198.9,-371.52 -198.9,-527.23 0,-291.92 236.67,-528.59 528.59,-528.59 291.92,0 528.6,236.67 528.6,528.59 0,154.75 -124.77,392.83 -198.43,527.74 -55.5,101.64 -114.63,201.16 -174.2,300.44 -23.21,38.68 -46.55,77.32 -69.31,116.26 -14.55,24.89 -29.9,50.84 -42.36,76.83 -8.03,16.76 -23.94,26.78 -42.53,26.78 -18.58,0 -34.5,-10.02 -42.53,-26.78z"/>
    <path class="fil7" d="M2329.2 64.37c265.89,0 481.44,215.55 481.44,481.44 0,259.73 -409.54,854.55 -479.67,1000.88 -69.27,-144.53 -483.2,-737.47 -483.2,-1000.88 0,-265.89 215.54,-481.44 481.44,-481.44z"/>
    <path class="fil8" d="M2329.2 283.98c144.61,0 261.83,117.22 261.83,261.83 0,144.61 -117.22,261.83 -261.83,261.83 -144.6,0 -261.83,-117.22 -261.83,-261.83 0,-144.6 117.22,-261.83 261.83,-261.83z"/>
   </g>
   <g>
    <path class="fil4" d="M27.37 3949.27l4311.37 0c15.05,0 27.37,12.32 27.37,27.37l0 138.59c0,15.05 -12.32,27.37 -27.37,27.37l-4311.37 0c-15.05,0 -27.37,-12.32 -27.37,-27.37l0 -138.59c0,-15.05 12.32,-27.37 27.37,-27.37z"/>
    <path class="fil9" d="M406.7 3882.85c212.98,0 350.06,-101.96 350.06,-268.49l0 -2.26c0,-159.74 -135.94,-218.65 -338.73,-256.03 -83.83,-15.86 -105.36,-29.45 -105.36,-50.98l0 -2.26c0,-19.26 18.13,-32.85 57.78,-32.85 73.64,0 163.14,23.79 237.91,78.17l129.15 -179c-91.76,-72.51 -205.05,-108.75 -357.99,-108.75 -218.64,0 -336.46,116.69 -336.46,267.36l0 2.27c0,167.66 156.34,218.64 334.2,254.9 84.97,16.99 109.89,29.45 109.89,52.11l0 2.27c0,21.52 -20.39,33.99 -67.97,33.99 -92.9,0 -191.46,-27.19 -277.56,-92.9l-141.61 168.8c100.83,88.36 245.84,133.68 406.7,133.68zm413.5 -14.73l265.09 0 0 -793.01 -265.09 0 0 793.01zm785.08 16.99c143.87,0 263.96,-48.72 350.06,-118.95l0 -367.05 -384.04 0 0 169.93 135.94 0 0 79.3c-20.39,11.33 -45.31,18.13 -90.63,18.13 -111.02,0 -189.19,-77.04 -189.19,-189.19l0 -2.27c0,-107.62 74.77,-186.92 177.86,-186.92 65.71,0 123.48,24.92 175.6,69.1l148.41 -178.99c-86.1,-74.77 -195.99,-120.09 -331.93,-120.09 -250.37,0 -437.29,176.73 -437.29,413.5l0 2.26c0,245.83 198.25,411.23 445.22,411.23zm427.09 -16.99l681.99 0 0 -217.51 -421.43 0 0 -86.1 387.44 0 0 -191.46 -387.44 0 0 -80.44 415.77 0 0 -217.51 -676.33 0 0 793.01zm1135.14 16.99c197.12,0 308.14,-96.29 374.98,-214.11l-218.64 -123.48c-32.85,58.91 -74.77,99.69 -149.54,99.69 -87.23,0 -148.41,-72.51 -148.41,-175.6l0 -2.27c0,-95.16 58.91,-173.33 148.41,-173.33 72.51,0 114.42,39.65 143.88,96.3l218.64 -128.02c-66.84,-121.22 -184.66,-206.18 -359.12,-206.18 -236.77,0 -421.43,176.73 -421.43,413.5l0 2.26c0,245.83 191.46,411.23 411.23,411.23zm425.96 -16.99l265.09 0 0 -284.35 242.44 0 0 284.35 265.09 0 0 -793.01 -265.09 0 0 279.82 -242.44 0 0 -279.82 -265.09 0 0 793.01z"/>
    <path class="fil10" d="M132.36 4088.87c20.46,0 34.79,-10.85 34.79,-29.09l0 -0.28c0,-16.14 -10.71,-23.52 -31.31,-28.53 -18.65,-4.46 -23.1,-7.79 -23.1,-15.31l0 -0.28c0,-6.4 5.84,-11.55 15.87,-11.55 8.91,0 17.67,3.48 26.44,10.02l9.19 -12.94c-9.88,-7.93 -21.16,-12.25 -35.35,-12.25 -19.34,0 -33.26,11.55 -33.26,28.25l0 0.28c0,17.95 11.69,24.08 32.43,29.09 18.09,4.18 21.99,7.93 21.99,14.89l0 0.28c0,7.37 -6.68,12.25 -17.26,12.25 -12.11,0 -21.43,-4.59 -30.76,-12.67l-10.3 12.25c11.69,10.44 25.75,15.59 40.64,15.59zm53.3 -86.15l18.09 0 0 -16 -18.09 0 0 16zm0.69 84.76l16.84 0 0 -73.48 -16.84 0 0 73.48zm64.02 1.39c15.31,0 27.28,-7.65 27.28,-23.1l0 -0.28c0,-13.22 -12.11,-18.09 -22.82,-21.43 -8.63,-2.78 -16.56,-5.01 -16.56,-10.3l0 -0.28c0,-4.31 3.76,-7.38 10.3,-7.38 6.12,0 13.64,2.65 20.74,6.96l6.68 -11.97c-7.79,-5.15 -17.82,-8.35 -27,-8.35 -14.61,0 -26.16,8.49 -26.16,22.41l0 0.28c0,14.06 12.11,18.51 22.96,21.57 8.63,2.65 16.42,4.59 16.42,10.3l0 0.28c0,4.87 -4.18,7.93 -11.41,7.93 -7.52,0 -16.14,-3.06 -24.08,-9.05l-7.52 11.41c9.18,7.24 20.74,10.99 31.17,10.99zm67.64 -0.14c6.26,0 10.99,-1.39 15.17,-3.76l0 -13.78c-3.34,1.67 -6.68,2.51 -10.44,2.51 -5.7,0 -9.05,-2.64 -9.05,-9.19l0 -36.04 19.76 0 0 -14.47 -19.76 0 0 -20.18 -16.84 0 0 20.18 -9.32 0 0 14.47 9.32 0 0 38.69c0,16.14 8.77,21.57 21.15,21.57zm64.02 0.42c13.5,0 23.1,-5.43 30.06,-13.78l-9.88 -8.77c-5.85,5.71 -11.69,8.77 -19.9,8.77 -10.85,0 -19.35,-6.68 -21.15,-18.65l54 0c0.14,-1.67 0.28,-3.2 0.28,-4.73 0,-21.15 -11.83,-39.52 -35.21,-39.52 -21.02,0 -35.91,17.26 -35.91,38.27l0 0.28c0,22.68 16.42,38.13 37.72,38.13zm-21.01 -43.56c1.53,-11.41 8.77,-19.35 19.06,-19.35 11.14,0 17.54,8.49 18.65,19.35l-37.72 0zm71.39 41.89l16.84 0 0 -41.33c0,-11.41 6.4,-18.37 15.73,-18.37 9.33,0 14.89,6.4 14.89,17.81l0 41.89 16.84 0 0 -41.47c0,-11.83 6.54,-18.23 15.73,-18.23 9.46,0 14.89,6.26 14.89,17.95l0 41.75 16.84 0 0 -46.9c0,-17.95 -9.74,-28.11 -25.75,-28.11 -11.13,0 -18.92,5.15 -24.91,12.94 -3.9,-7.79 -11.27,-12.94 -21.85,-12.94 -11.27,0 -17.67,6.12 -22.41,12.66l0 -11.13 -16.84 0 0 73.48zm193.87 0l0 -43.56c0,-19.62 -10.58,-31.03 -32.29,-31.03 -11.97,0 -19.9,2.5 -27.97,6.12l4.59 13.5c6.68,-2.78 12.8,-4.59 21.01,-4.59 11.69,0 18.09,5.57 18.09,15.73l0 1.39c-5.71,-1.81 -11.41,-3.06 -20.32,-3.06 -17.12,0 -29.78,7.79 -29.78,24.08l0 0.28c0,14.75 12.25,22.69 26.16,22.69 11.14,0 18.79,-4.59 23.8,-10.58l0 9.05 16.7 0zm-16.28 -26.58c0,9.19 -8.35,15.45 -19.49,15.45 -7.93,0 -14.19,-3.9 -14.19,-10.86l0 -0.28c0,-7.1 6.26,-11.41 16.84,-11.41 6.54,0 12.52,1.25 16.84,2.92l0 4.17zm108.41 28.12c11.97,0 19.62,-6.13 25.05,-13.78l0 12.25 16.84 0 0 -101.59 -16.84 0 0 39.52c-5.29,-6.82 -12.94,-12.94 -25.05,-12.94 -17.53,0 -34.1,13.78 -34.1,38.13l0 0.28c0,24.36 16.84,38.13 34.1,38.13zm4.04 -14.61c-11.41,0 -21.15,-9.32 -21.15,-23.52l0 -0.28c0,-14.61 9.6,-23.52 21.15,-23.52 11.27,0 21.29,9.32 21.29,23.52l0 0.28c0,14.06 -10.02,23.52 -21.29,23.52zm92.55 14.75c13.5,0 23.1,-5.43 30.06,-13.78l-9.88 -8.77c-5.84,5.71 -11.69,8.77 -19.9,8.77 -10.85,0 -19.34,-6.68 -21.15,-18.65l54 0c0.14,-1.67 0.28,-3.2 0.28,-4.73 0,-21.15 -11.83,-39.52 -35.21,-39.52 -21.02,0 -35.91,17.26 -35.91,38.27l0 0.28c0,22.68 16.42,38.13 37.72,38.13zm-21.01 -43.56c1.53,-11.41 8.77,-19.35 19.07,-19.35 11.13,0 17.53,8.49 18.65,19.35l-37.72 0zm113.43 -42.87l18.09 0 0 -16 -18.09 0 0 16zm0.69 84.76l16.84 0 0 -73.48 -16.84 0 0 73.48zm38.83 0l16.84 0 0 -41.47c0,-11.41 6.82,-18.23 16.56,-18.23 10.02,0 15.73,6.54 15.73,17.95l0 41.75 16.84 0 0 -46.76c0,-17.12 -9.61,-28.25 -26.16,-28.25 -11.41,0 -18.23,5.98 -22.96,12.94l0 -11.41 -16.84 0 0 73.48zm90.05 0l16.84 0 0 -59.01 19.21 0 0 -13.92 -19.49 0 0 -4.04c0,-7.65 3.34,-11.13 9.74,-11.13 3.62,0 6.54,0.69 9.88,1.81l0 -14.2c-3.76,-1.11 -7.79,-1.95 -13.64,-1.95 -7.24,0 -12.67,1.95 -16.56,5.85 -3.9,3.9 -5.98,10.02 -5.98,18.23l0 5.29 -9.32 0 0 14.06 9.32 0 0 59.01zm82.11 1.67c22.68,0 39.39,-17.4 39.39,-38.27l0 -0.28c0,-21.01 -16.56,-38.13 -39.11,-38.13 -22.55,0 -39.25,17.4 -39.25,38.41l0 0.28c0,20.88 16.56,37.99 38.97,37.99zm0.28 -14.61c-13.08,0 -22.41,-10.86 -22.41,-23.66l0 -0.28c0,-12.8 8.63,-23.38 22.13,-23.38 13.22,0 22.54,10.72 22.54,23.66l0 0.28c0,12.67 -8.63,23.38 -22.27,23.38zm56.22 12.94l16.84 0 0 -27.97c0,-19.48 10.3,-29.09 25.05,-29.09l0.98 0 0 -17.81c-12.94,-0.56 -21.43,6.96 -26.03,17.95l0 -16.56 -16.84 0 0 73.48zm57.48 0l16.84 0 0 -41.33c0,-11.41 6.4,-18.37 15.73,-18.37 9.32,0 14.89,6.4 14.89,17.81l0 41.89 16.84 0 0 -41.47c0,-11.83 6.54,-18.23 15.73,-18.23 9.46,0 14.89,6.26 14.89,17.95l0 41.75 16.84 0 0 -46.9c0,-17.95 -9.74,-28.11 -25.74,-28.11 -11.14,0 -18.93,5.15 -24.91,12.94 -3.9,-7.79 -11.27,-12.94 -21.85,-12.94 -11.27,0 -17.67,6.12 -22.41,12.66l0 -11.13 -16.84 0 0 73.48zm193.87 0l0 -43.56c0,-19.62 -10.58,-31.03 -32.29,-31.03 -11.97,0 -19.9,2.5 -27.97,6.12l4.59 13.5c6.68,-2.78 12.8,-4.59 21.01,-4.59 11.69,0 18.09,5.57 18.09,15.73l0 1.39c-5.71,-1.81 -11.41,-3.06 -20.32,-3.06 -17.12,0 -29.78,7.79 -29.78,24.08l0 0.28c0,14.75 12.25,22.69 26.16,22.69 11.14,0 18.79,-4.59 23.8,-10.58l0 9.05 16.7 0zm-16.28 -26.58c0,9.19 -8.35,15.45 -19.49,15.45 -7.93,0 -14.19,-3.9 -14.19,-10.86l0 -0.28c0,-7.1 6.26,-11.41 16.84,-11.41 6.54,0 12.53,1.25 16.84,2.92l0 4.17zm70.28 28.25c14.33,0 22.82,-5.7 30.06,-13.78l-10.16 -10.02c-5.29,5.43 -11.13,9.19 -19.07,9.19 -12.94,0 -21.99,-10.58 -21.99,-23.66l0 -0.28c0,-12.8 8.91,-23.38 21.16,-23.38 8.49,0 13.91,3.76 19.07,9.19l10.44 -11.27c-6.82,-7.52 -15.45,-12.66 -29.36,-12.66 -21.99,0 -38.13,17.53 -38.13,38.41l0 0.28c0,20.88 16.14,37.99 37.99,37.99zm45.79 -86.43l18.09 0 0 -16 -18.09 0 0 16zm0.7 84.76l16.84 0 0 -73.48 -16.84 0 0 73.48zm67.22 -82.81l12.67 0 17.12 -16 -15.31 -6.82 -14.47 22.82zm6.54 84.48c22.68,0 39.39,-17.4 39.39,-38.27l0 -0.28c0,-21.01 -16.56,-38.13 -39.11,-38.13 -22.55,0 -39.25,17.4 -39.25,38.41l0 0.28c0,20.88 16.56,37.99 38.97,37.99zm0.28 -14.61c-13.08,0 -22.41,-10.86 -22.41,-23.66l0 -0.28c0,-12.8 8.63,-23.38 22.13,-23.38 13.22,0 22.54,10.72 22.54,23.66l0 0.28c0,12.67 -8.63,23.38 -22.27,23.38zm56.22 12.94l16.84 0 0 -41.47c0,-11.41 6.82,-18.23 16.56,-18.23 10.02,0 15.73,6.54 15.73,17.95l0 41.75 16.84 0 0 -46.76c0,-17.12 -9.61,-28.25 -26.16,-28.25 -11.41,0 -18.23,5.98 -22.96,12.94l0 -11.41 -16.84 0 0 73.48zm176.2 1.67c17.26,0 31.03,-6.96 40.64,-15.17l0 -40.91 -41.47 0 0 14.89 24.91 0 0 18.23c-5.99,4.45 -14.34,7.38 -23.52,7.38 -19.9,0 -33.12,-14.76 -33.12,-34.79l0 -0.28c0,-18.65 13.64,-34.37 31.59,-34.37 12.38,0 19.76,4.04 27.28,10.44l10.86 -12.94c-10.02,-8.49 -20.46,-13.22 -37.44,-13.22 -29.36,0 -50.24,23.1 -50.24,50.38l0 0.28c0,28.39 20.04,50.1 50.52,50.1zm94.64 0c13.5,0 23.1,-5.43 30.06,-13.78l-9.88 -8.77c-5.85,5.71 -11.69,8.77 -19.9,8.77 -10.85,0 -19.35,-6.68 -21.15,-18.65l54 0c0.14,-1.67 0.28,-3.2 0.28,-4.73 0,-21.15 -11.83,-39.52 -35.21,-39.52 -21.02,0 -35.91,17.26 -35.91,38.27l0 0.28c0,22.68 16.42,38.13 37.72,38.13zm-21.01 -43.56c1.53,-11.41 8.77,-19.35 19.06,-19.35 11.14,0 17.54,8.49 18.65,19.35l-37.72 0zm106.33 43.56c22.68,0 39.39,-17.4 39.39,-38.27l0 -0.28c0,-21.01 -16.56,-38.13 -39.11,-38.13 -22.54,0 -39.25,17.4 -39.25,38.41l0 0.28c0,20.88 16.56,37.99 38.97,37.99zm0.28 -14.61c-13.08,0 -22.41,-10.86 -22.41,-23.66l0 -0.28c0,-12.8 8.63,-23.38 22.13,-23.38 13.22,0 22.55,10.72 22.55,23.66l0 0.28c0,12.67 -8.63,23.38 -22.27,23.38zm88.93 35.49c13.22,0 23.52,-3.2 30.2,-9.88 6.12,-6.12 9.32,-15.31 9.32,-27.69l0 -58.45 -16.84 0 0 10.99c-5.7,-6.82 -13.36,-12.52 -25.75,-12.52 -17.12,0 -33.4,12.8 -33.4,34.51l0 0.28c0,21.57 16.14,34.37 33.4,34.37 12.11,0 19.76,-5.57 25.89,-13.5l0 5.71c0,14.75 -8.21,22.54 -23.24,22.54 -10.02,0 -18.37,-2.93 -26.16,-7.79l-6.27 12.66c9.47,5.71 20.74,8.77 32.85,8.77zm1.39 -42.59c-11.55,0 -20.88,-8.21 -20.88,-20.32l0 -0.28c0,-12.11 9.19,-20.18 20.88,-20.18 11.69,0 21.57,8.21 21.57,20.32l0 0.28c0,11.83 -9.88,20.18 -21.57,20.18zm59.15 20.04l16.84 0 0 -27.97c0,-19.48 10.3,-29.09 25.05,-29.09l0.97 0 0 -17.81c-12.94,-0.56 -21.43,6.96 -26.03,17.95l0 -16.56 -16.84 0 0 73.48zm115.65 0l0 -43.56c0,-19.62 -10.58,-31.03 -32.29,-31.03 -11.97,0 -19.9,2.5 -27.97,6.12l4.59 13.5c6.68,-2.78 12.8,-4.59 21.01,-4.59 11.69,0 18.09,5.57 18.09,15.73l0 1.39c-5.71,-1.81 -11.41,-3.06 -20.32,-3.06 -17.12,0 -29.78,7.79 -29.78,24.08l0 0.28c0,14.75 12.25,22.69 26.16,22.69 11.14,0 18.79,-4.59 23.8,-10.58l0 9.05 16.7 0zm-16.28 -26.58c0,9.19 -8.35,15.45 -19.49,15.45 -7.93,0 -14.19,-3.9 -14.19,-10.86l0 -0.28c0,-7.1 6.26,-11.41 16.84,-11.41 6.54,0 12.53,1.25 16.84,2.92l0 4.17zm-21.71 -56.22l12.66 0 17.12 -16 -15.31 -6.82 -14.47 22.82zm110.64 -1.95l18.09 0 0 -16 -18.09 0 0 16zm-48.85 84.76l16.84 0 0 -59.01 19.21 0 0 -13.92 -19.48 0 0 -4.04c0,-7.65 3.34,-11.13 9.74,-11.13 3.61,0 6.54,0.69 9.88,1.81l0 -14.2c-3.76,-1.11 -7.79,-1.95 -13.64,-1.95 -7.23,0 -12.66,1.95 -16.56,5.85 -3.9,3.9 -5.98,10.02 -5.98,18.23l0 5.29 -9.33 0 0 14.06 9.33 0 0 59.01zm49.54 0l16.84 0 0 -73.48 -16.84 0 0 73.48zm72.79 1.67c14.34,0 22.82,-5.7 30.06,-13.78l-10.16 -10.02c-5.29,5.43 -11.14,9.19 -19.07,9.19 -12.94,0 -21.99,-10.58 -21.99,-23.66l0 -0.28c0,-12.8 8.91,-23.38 21.15,-23.38 8.49,0 13.92,3.76 19.07,9.19l10.44 -11.27c-6.82,-7.52 -15.45,-12.66 -29.36,-12.66 -21.99,0 -38.13,17.53 -38.13,38.41l0 0.28c0,20.88 16.14,37.99 37.99,37.99zm107.16 -1.67l0 -43.56c0,-19.62 -10.58,-31.03 -32.29,-31.03 -11.97,0 -19.9,2.5 -27.97,6.12l4.59 13.5c6.68,-2.78 12.8,-4.59 21.01,-4.59 11.69,0 18.09,5.57 18.09,15.73l0 1.39c-5.71,-1.81 -11.41,-3.06 -20.32,-3.06 -17.12,0 -29.78,7.79 -29.78,24.08l0 0.28c0,14.75 12.25,22.69 26.16,22.69 11.14,0 18.79,-4.59 23.8,-10.58l0 9.05 16.7 0zm-16.28 -26.58c0,9.19 -8.35,15.45 -19.49,15.45 -7.93,0 -14.19,-3.9 -14.19,-10.86l0 -0.28c0,-7.1 6.26,-11.41 16.84,-11.41 6.54,0 12.53,1.25 16.84,2.92l0 4.17zm66.66 28.12c11.97,0 19.62,-6.13 25.05,-13.78l0 12.25 16.84 0 0 -101.59 -16.84 0 0 39.52c-5.29,-6.82 -12.94,-12.94 -25.05,-12.94 -17.54,0 -34.1,13.78 -34.1,38.13l0 0.28c0,24.36 16.84,38.13 34.1,38.13zm4.04 -14.61c-11.41,0 -21.15,-9.32 -21.15,-23.52l0 -0.28c0,-14.61 9.6,-23.52 21.15,-23.52 11.27,0 21.29,9.32 21.29,23.52l0 0.28c0,14.06 -10.02,23.52 -21.29,23.52zm92.55 14.75c13.5,0 23.1,-5.43 30.06,-13.78l-9.88 -8.77c-5.85,5.71 -11.69,8.77 -19.9,8.77 -10.86,0 -19.35,-6.68 -21.16,-18.65l54 0c0.14,-1.67 0.28,-3.2 0.28,-4.73 0,-21.15 -11.83,-39.52 -35.21,-39.52 -21.02,0 -35.91,17.26 -35.91,38.27l0 0.28c0,22.68 16.42,38.13 37.72,38.13zm-21.01 -43.56c1.53,-11.41 8.77,-19.35 19.06,-19.35 11.14,0 17.54,8.49 18.65,19.35l-37.71 0zm72.37 41.89l16.84 0 0 -101.59 -16.84 0 0 101.59zm82.53 0l72.92 0 0 -15.31 -55.8 0 0 -26.16 48.85 0 0 -15.31 -48.85 0 0 -25.33 55.11 0 0 -15.31 -72.23 0 0 97.42zm116.49 1.39c15.31,0 27.28,-7.65 27.28,-23.1l0 -0.28c0,-13.22 -12.11,-18.09 -22.82,-21.43 -8.63,-2.78 -16.56,-5.01 -16.56,-10.3l0 -0.28c0,-4.31 3.76,-7.38 10.3,-7.38 6.12,0 13.64,2.65 20.74,6.96l6.68 -11.97c-7.79,-5.15 -17.81,-8.35 -27,-8.35 -14.61,0 -26.17,8.49 -26.17,22.41l0 0.28c0,14.06 12.11,18.51 22.97,21.57 8.63,2.65 16.42,4.59 16.42,10.3l0 0.28c0,4.87 -4.17,7.93 -11.41,7.93 -7.51,0 -16.14,-3.06 -24.08,-9.05l-7.51 11.41c9.18,7.24 20.74,10.99 31.17,10.99zm67.64 -0.14c6.26,0 10.99,-1.39 15.17,-3.76l0 -13.78c-3.34,1.67 -6.68,2.51 -10.44,2.51 -5.7,0 -9.05,-2.64 -9.05,-9.19l0 -36.04 19.76 0 0 -14.47 -19.76 0 0 -20.18 -16.84 0 0 20.18 -9.32 0 0 14.47 9.32 0 0 38.69c0,16.14 8.77,21.57 21.15,21.57zm94.08 -1.25l0 -43.56c0,-19.62 -10.58,-31.03 -32.29,-31.03 -11.97,0 -19.9,2.5 -27.97,6.12l4.59 13.5c6.68,-2.78 12.8,-4.59 21.01,-4.59 11.69,0 18.09,5.57 18.09,15.73l0 1.39c-5.71,-1.81 -11.41,-3.06 -20.32,-3.06 -17.12,0 -29.78,7.79 -29.78,24.08l0 0.28c0,14.75 12.25,22.69 26.16,22.69 11.13,0 18.79,-4.59 23.8,-10.58l0 9.05 16.7 0zm-16.28 -26.58c0,9.19 -8.35,15.45 -19.49,15.45 -7.93,0 -14.19,-3.9 -14.19,-10.86l0 -0.28c0,-7.1 6.26,-11.41 16.84,-11.41 6.54,0 12.53,1.25 16.84,2.92l0 4.17zm66.66 28.12c11.97,0 19.62,-6.13 25.05,-13.78l0 12.25 16.84 0 0 -101.59 -16.84 0 0 39.52c-5.29,-6.82 -12.94,-12.94 -25.05,-12.94 -17.54,0 -34.1,13.78 -34.1,38.13l0 0.28c0,24.36 16.84,38.13 34.1,38.13zm4.04 -14.61c-11.41,0 -21.15,-9.32 -21.15,-23.52l0 -0.28c0,-14.61 9.6,-23.52 21.15,-23.52 11.27,0 21.29,9.32 21.29,23.52l0 0.28c0,14.06 -10.02,23.52 -21.29,23.52zm93.8 14.75c22.68,0 39.39,-17.4 39.39,-38.27l0 -0.28c0,-21.01 -16.56,-38.13 -39.11,-38.13 -22.54,0 -39.25,17.4 -39.25,38.41l0 0.28c0,20.88 16.56,37.99 38.97,37.99zm0.28 -14.61c-13.08,0 -22.41,-10.86 -22.41,-23.66l0 -0.28c0,-12.8 8.63,-23.38 22.13,-23.38 13.22,0 22.54,10.72 22.54,23.66l0 0.28c0,12.67 -8.63,23.38 -22.27,23.38zm128.32 14.47c11.97,0 19.62,-6.13 25.05,-13.78l0 12.25 16.84 0 0 -101.59 -16.84 0 0 39.52c-5.29,-6.82 -12.94,-12.94 -25.05,-12.94 -17.53,0 -34.1,13.78 -34.1,38.13l0 0.28c0,24.36 16.84,38.13 34.1,38.13zm4.04 -14.61c-11.41,0 -21.15,-9.32 -21.15,-23.52l0 -0.28c0,-14.61 9.6,-23.52 21.15,-23.52 11.27,0 21.29,9.32 21.29,23.52l0 0.28c0,14.06 -10.02,23.52 -21.29,23.52zm92.55 14.75c13.5,0 23.1,-5.43 30.06,-13.78l-9.88 -8.77c-5.84,5.71 -11.69,8.77 -19.9,8.77 -10.85,0 -19.34,-6.68 -21.15,-18.65l54 0c0.14,-1.67 0.28,-3.2 0.28,-4.73 0,-21.15 -11.83,-39.52 -35.21,-39.52 -21.02,0 -35.91,17.26 -35.91,38.27l0 0.28c0,22.68 16.42,38.13 37.72,38.13zm-21.01 -43.56c1.53,-11.41 8.77,-19.35 19.06,-19.35 11.14,0 17.54,8.49 18.65,19.35l-37.72 0zm160.33 43.56c18.23,0 29.36,-6.68 39.53,-17.26l-10.99 -11.13c-8.35,7.79 -16.01,12.66 -27.97,12.66 -18.65,0 -32.15,-15.59 -32.15,-34.65l0 -0.28c0,-19.06 13.5,-34.37 32.15,-34.37 11.13,0 19.48,4.87 27.28,12.11l10.99 -12.67c-9.32,-8.91 -20.18,-15.17 -38.13,-15.17 -29.51,0 -50.24,22.68 -50.24,50.38l0 0.28c0,27.97 21.15,50.1 49.55,50.1zm55.53 -1.67l16.84 0 0 -41.47c0,-11.41 6.82,-18.23 16.56,-18.23 10.02,0 15.73,6.54 15.73,17.95l0 41.75 16.84 0 0 -46.76c0,-17.12 -9.61,-28.25 -26.17,-28.25 -11.41,0 -18.23,5.98 -22.96,12.94l0 -39.52 -16.84 0 0 101.59zm86.57 -84.76l18.09 0 0 -16 -18.09 0 0 16zm0.69 84.76l16.84 0 0 -73.48 -16.84 0 0 73.48zm38.83 0l16.84 0 0 -41.47c0,-11.41 6.82,-18.23 16.56,-18.23 10.02,0 15.73,6.54 15.73,17.95l0 41.75 16.84 0 0 -46.76c0,-17.12 -9.61,-28.25 -26.16,-28.25 -11.41,0 -18.23,5.98 -22.96,12.94l0 -39.52 -16.84 0 0 101.59zm111.62 1.53c11.41,0 18.23,-5.99 22.97,-12.95l0 11.41 16.84 0 0 -73.48 -16.84 0 0 41.47c0,11.41 -6.82,18.23 -16.56,18.23 -10.02,0 -15.72,-6.54 -15.72,-17.95l0 -41.75 -16.84 0 0 46.76c0,17.12 9.6,28.25 26.16,28.25zm122.61 -1.53l0 -43.56c0,-19.62 -10.58,-31.03 -32.29,-31.03 -11.97,0 -19.9,2.5 -27.97,6.12l4.59 13.5c6.68,-2.78 12.8,-4.59 21.01,-4.59 11.69,0 18.09,5.57 18.09,15.73l0 1.39c-5.71,-1.81 -11.41,-3.06 -20.32,-3.06 -17.12,0 -29.78,7.79 -29.78,24.08l0 0.28c0,14.75 12.25,22.69 26.16,22.69 11.13,0 18.79,-4.59 23.8,-10.58l0 9.05 16.7 0zm-16.28 -26.58c0,9.19 -8.35,15.45 -19.49,15.45 -7.93,0 -14.19,-3.9 -14.19,-10.86l0 -0.28c0,-7.1 6.26,-11.41 16.84,-11.41 6.54,0 12.53,1.25 16.84,2.92l0 4.17zm36.32 26.58l16.84 0 0 -41.47c0,-11.41 6.82,-18.23 16.56,-18.23 10.02,0 15.73,6.54 15.73,17.95l0 41.75 16.84 0 0 -46.76c0,-17.12 -9.61,-28.25 -26.16,-28.25 -11.41,0 -18.23,5.98 -22.96,12.94l0 -39.52 -16.84 0 0 101.59zm111.62 1.53c11.41,0 18.23,-5.99 22.97,-12.95l0 11.41 16.84 0 0 -73.48 -16.84 0 0 41.47c0,11.41 -6.82,18.23 -16.56,18.23 -10.02,0 -15.72,-6.54 -15.72,-17.95l0 -41.75 -16.84 0 0 46.76c0,17.12 9.6,28.25 26.16,28.25zm122.61 -1.53l0 -43.56c0,-19.62 -10.58,-31.03 -32.29,-31.03 -11.97,0 -19.9,2.5 -27.97,6.12l4.59 13.5c6.68,-2.78 12.8,-4.59 21.01,-4.59 11.69,0 18.09,5.57 18.09,15.73l0 1.39c-5.7,-1.81 -11.41,-3.06 -20.32,-3.06 -17.12,0 -29.78,7.79 -29.78,24.08l0 0.28c0,14.75 12.25,22.69 26.16,22.69 11.14,0 18.79,-4.59 23.8,-10.58l0 9.05 16.7 0zm-16.28 -26.58c0,9.19 -8.35,15.45 -19.49,15.45 -7.93,0 -14.19,-3.9 -14.19,-10.86l0 -0.28c0,-7.1 6.26,-11.41 16.84,-11.41 6.54,0 12.53,1.25 16.84,2.92l0 4.17z"/>
   </g>
  </g>
 </g>
</svg>
