<?xml version="1.0" encoding="UTF-8"?>
<!DOCTYPE svg PUBLIC "-//W3C//DTD SVG 1.1//EN" "http://www.w3.org/Graphics/SVG/1.1/DTD/svg11.dtd">
<!-- Creator: CorelDRAW 2018 (64 Bit) -->
<svg xmlns="http://www.w3.org/2000/svg" xml:space="preserve" width="67.3384mm" height="72.9531mm" version="1.1" style="shape-rendering:geometricPrecision; text-rendering:geometricPrecision; image-rendering:optimizeQuality; fill-rule:evenodd; clip-rule:evenodd"
viewBox="0 0 6841.51 7411.96"
 xmlns:xlink="http://www.w3.org/1999/xlink">
 <defs>
  <style type="text/css">
   <![CDATA[
    .fil6 {fill:#FEFEFE}
    .fil2 {fill:#373435}
    .fil1 {fill:#373435}
    .fil0 {fill:#373435;fill-rule:nonzero}
    .fil3 {fill:#91D8F7;fill-rule:nonzero}
    .fil5 {fill:#2372B8;fill-rule:nonzero}
    .fil4 {fill:#00AFEF;fill-rule:nonzero}
   ]]>
  </style>
 </defs>
 <g id="Capa_x0020_1">
  <metadata id="CorelCorpID_0Corel-Layer"/>
  <g id="_2811215205568">
   <g>
    <path class="fil0" d="M2233 7411.96c-27.73,0 -53.3,-5.04 -76.7,-15.13 -23.41,-10.08 -43.76,-23.86 -60.95,-41.32 -17.19,-17.46 -30.69,-38.08 -40.51,-61.84 -9.81,-23.76 -14.67,-49.15 -14.67,-76.16l0 -1.08c0,-27.01 4.76,-52.3 14.4,-75.88 9.63,-23.59 23.13,-44.3 40.52,-62.12 17.37,-17.83 37.99,-31.87 61.75,-42.13 23.76,-10.26 50.05,-15.39 78.86,-15.39 17.28,0 33.03,1.44 47.25,4.32 14.22,2.89 27.28,6.94 39.17,12.15 11.88,5.22 22.86,11.44 32.95,18.64 10.08,7.19 19.62,15.12 28.62,23.76l-42.67 49.15c-15.12,-14.05 -31.14,-25.39 -48.07,-34.04 -16.93,-8.64 -36.19,-12.96 -57.8,-12.96 -18,0 -34.66,3.52 -49.96,10.54 -15.3,7.02 -28.54,16.56 -39.7,28.63 -11.16,12.06 -19.8,26.19 -25.92,42.4 -6.13,16.21 -9.18,33.49 -9.18,51.86l0 1.08c0,18.36 3.06,35.74 9.18,52.12 6.12,16.39 14.76,30.7 25.92,42.95 11.17,12.24 24.4,21.87 39.7,28.89 15.3,7.02 31.95,10.54 49.96,10.54 23.05,0 42.85,-4.42 59.42,-13.24 16.57,-8.82 32.95,-20.8 49.15,-35.92l42.67 43.21c-9.72,10.44 -19.89,19.71 -30.52,27.82 -10.62,8.1 -22.05,15.12 -34.29,21.06 -12.24,5.94 -25.66,10.44 -40.24,13.5 -14.59,3.06 -30.7,4.59 -48.34,4.59zm214.96 -400.78l65.9 0 0 153.85c4.68,-6.94 9.81,-13.33 15.39,-19.35 5.5,-5.94 11.98,-11.35 19.35,-16.03 7.39,-4.76 15.4,-8.45 24.22,-11.25 8.82,-2.7 18.82,-4.05 29.89,-4.05 32.32,0 57.25,9.91 74.9,29.71 17.55,19.8 26.38,46.45 26.38,79.94l0 181.49 -65.9 0 0 -161.67c0,-22.24 -5.22,-39.43 -15.76,-51.41 -10.54,-12.06 -25.47,-18.09 -44.73,-18.09 -18.91,0 -34.3,6.22 -46.1,18.63 -11.8,12.33 -17.65,29.71 -17.65,51.95l0 160.6 -65.9 0 0 -394.3zm338.67 109.11l65.89 0 0 285.19 -65.89 0 0 -285.19zm-2.7 -105.87l70.75 0 0 62.12 -70.75 0 0 -62.12zm153.39 -3.24l65.9 0 0 153.85c4.68,-6.94 9.81,-13.33 15.39,-19.35 5.5,-5.94 11.98,-11.35 19.35,-16.03 7.39,-4.76 15.4,-8.45 24.22,-11.25 8.82,-2.7 18.82,-4.05 29.89,-4.05 32.32,0 57.25,9.91 74.9,29.71 17.55,19.8 26.38,46.45 26.38,79.94l0 181.49 -65.9 0 0 -161.67c0,-22.24 -5.22,-39.43 -15.76,-51.41 -10.54,-12.06 -25.47,-18.09 -44.73,-18.09 -18.91,0 -34.3,6.22 -46.1,18.63 -11.8,12.33 -17.65,29.71 -17.65,51.95l0 160.6 -65.9 0 0 -394.3zm432.91 400.24c-32.31,0 -57.25,-9.91 -74.89,-29.71 -17.56,-19.8 -26.39,-46.45 -26.39,-79.94l0 -181.49 65.9 0 0 161.67c0,22.24 5.22,39.43 15.76,51.41 10.54,12.06 25.47,18.09 44.74,18.09 18.9,0 34.29,-6.22 46.09,-18.63 11.8,-12.33 17.65,-29.71 17.65,-51.95l0 -160.6 65.9 0 0 285.19 -65.9 0 0 -44.74c-9.37,13.78 -20.98,25.66 -35.02,35.65 -13.95,10 -31.95,15.04 -53.84,15.04zm412.94 -125.31c-8.29,-3.24 -18.09,-5.94 -29.44,-8.1 -11.34,-2.16 -23.32,-3.24 -35.92,-3.24 -20.52,0 -36.56,3.95 -48.08,11.88 -11.52,7.92 -17.28,18.72 -17.28,32.41l0 1.08c0,13.69 5.31,24.13 15.93,31.33 10.63,7.2 23.68,10.8 39.17,10.8 10.8,0 20.79,-1.44 29.97,-4.32 9.18,-2.89 17.2,-6.94 24.04,-12.16 6.84,-5.21 12.15,-11.52 15.93,-18.9 3.78,-7.39 5.68,-15.58 5.68,-24.58l0 -16.21zm-1.63 119.37l0 -35.11c-9.72,11.53 -22.15,21.24 -37.27,29.17 -15.13,7.92 -33.49,11.89 -55.1,11.89 -13.69,0 -26.65,-1.89 -38.89,-5.67 -12.24,-3.79 -22.95,-9.37 -32.14,-16.74 -9.18,-7.39 -16.56,-16.57 -22.14,-27.55 -5.59,-10.98 -8.37,-23.67 -8.37,-38.08l0 -1.08c0,-15.85 2.88,-29.62 8.64,-41.32 5.76,-11.7 13.78,-21.43 24.04,-29.17 10.26,-7.74 22.5,-13.5 36.73,-17.28 14.22,-3.78 29.62,-5.67 46.18,-5.67 17.29,0 31.96,1.08 44.02,3.24 12.06,2.15 23.67,5.04 34.84,8.64l0 -5.39c0,-19.81 -6.02,-34.93 -18.09,-45.37 -12.06,-10.44 -29.43,-15.67 -52.12,-15.67 -16.21,0 -30.61,1.63 -43.21,4.87 -12.61,3.24 -25.39,7.56 -38.35,12.96l-17.82 -52.39c15.84,-7.2 32.04,-12.96 48.62,-17.28 16.56,-4.33 36.55,-6.48 59.95,-6.48 42.49,0 73.99,10.53 94.52,31.6 20.52,21.06 30.79,50.68 30.79,88.85l0 169.06 -64.82 0zm142.59 -394.3l65.9 0 0 153.85c4.68,-6.94 9.81,-13.33 15.39,-19.35 5.5,-5.94 11.98,-11.35 19.35,-16.03 7.39,-4.76 15.4,-8.45 24.22,-11.25 8.82,-2.7 18.82,-4.05 29.89,-4.05 32.32,0 57.25,9.91 74.9,29.71 17.55,19.8 26.38,46.45 26.38,79.94l0 181.49 -65.9 0 0 -161.67c0,-22.24 -5.22,-39.43 -15.76,-51.41 -10.54,-12.06 -25.47,-18.09 -44.73,-18.09 -18.91,0 -34.3,6.22 -46.1,18.63 -11.8,12.33 -17.65,29.71 -17.65,51.95l0 160.6 -65.9 0 0 -394.3zm432.91 400.24c-32.31,0 -57.25,-9.91 -74.89,-29.71 -17.56,-19.8 -26.39,-46.45 -26.39,-79.94l0 -181.49 65.9 0 0 161.67c0,22.24 5.22,39.43 15.76,51.41 10.54,12.06 25.47,18.09 44.74,18.09 18.9,0 34.29,-6.22 46.09,-18.63 11.8,-12.33 17.65,-29.71 17.65,-51.95l0 -160.6 65.9 0 0 285.19 -65.9 0 0 -44.74c-9.37,13.78 -20.98,25.66 -35.02,35.65 -13.95,10 -31.95,15.04 -53.84,15.04zm412.94 -125.31c-8.29,-3.24 -18.09,-5.94 -29.44,-8.1 -11.34,-2.16 -23.32,-3.24 -35.92,-3.24 -20.52,0 -36.56,3.95 -48.08,11.88 -11.52,7.92 -17.28,18.72 -17.28,32.41l0 1.08c0,13.69 5.31,24.13 15.93,31.33 10.63,7.2 23.68,10.8 39.17,10.8 10.8,0 20.79,-1.44 29.97,-4.32 9.18,-2.89 17.2,-6.94 24.04,-12.16 6.84,-5.21 12.15,-11.52 15.93,-18.9 3.78,-7.39 5.68,-15.58 5.68,-24.58l0 -16.21zm-1.63 119.37l0 -35.11c-9.72,11.53 -22.15,21.24 -37.27,29.17 -15.13,7.92 -33.49,11.89 -55.1,11.89 -13.69,0 -26.65,-1.89 -38.89,-5.67 -12.24,-3.79 -22.95,-9.37 -32.14,-16.74 -9.18,-7.39 -16.56,-16.57 -22.14,-27.55 -5.59,-10.98 -8.37,-23.67 -8.37,-38.08l0 -1.08c0,-15.85 2.88,-29.62 8.64,-41.32 5.76,-11.7 13.78,-21.43 24.04,-29.17 10.26,-7.74 22.5,-13.5 36.73,-17.28 14.22,-3.78 29.62,-5.67 46.18,-5.67 17.29,0 31.96,1.08 44.02,3.24 12.06,2.15 23.67,5.04 34.84,8.64l0 -5.39c0,-19.81 -6.02,-34.93 -18.09,-45.37 -12.06,-10.44 -29.43,-15.67 -52.12,-15.67 -16.21,0 -30.61,1.63 -43.21,4.87 -12.61,3.24 -25.39,7.56 -38.35,12.96l-17.82 -52.39c15.84,-7.2 32.04,-12.96 48.62,-17.28 16.56,-4.33 36.55,-6.48 59.95,-6.48 42.49,0 73.99,10.53 94.52,31.6 20.52,21.06 30.79,50.68 30.79,88.85l0 169.06 -64.82 0z"/>
    <path class="fil0" d="M5993.29 6655.57l848.22 0 0 -301.32 -495.68 0 0 -753.31 -352.54 0 0 1054.63zm-762.35 -391.71l96.42 -256.13 96.43 256.13 -192.85 0zm-519.78 391.71l376.66 0 54.23 -141.62 369.11 0 55.75 141.62 382.68 0 -444.44 -1062.16 -349.54 0 -444.44 1062.16zm-530.33 0l352.55 0 0 -756.31 310.36 0 0 -298.32 -973.28 0 0 298.32 310.36 0 0 756.31zm-896.43 -391.71l96.42 -256.13 96.43 256.13 -192.85 0zm-519.78 391.71l376.66 0 54.22 -141.62 369.12 0 55.75 141.62 382.68 0 -444.46 -1062.16 -349.53 0 -444.44 1062.16zm-530.33 0l352.55 0 0 -756.31 310.36 0 0 -298.32 -973.28 0 0 298.32 310.36 0 0 756.31zm-778.92 19.59c283.25,0 465.55,-135.59 465.55,-357.07l0 -3.01c0,-212.43 -180.8,-290.78 -450.48,-340.49 -111.49,-21.09 -140.12,-39.18 -140.12,-67.81l0 -3.01c0,-25.61 24.1,-43.7 76.84,-43.7 97.93,0 216.95,31.64 316.38,103.96l171.76 -238.05c-122.04,-96.42 -272.7,-144.64 -476.09,-144.64 -290.78,0 -447.46,155.19 -447.46,355.57l0 3.02c0,222.98 207.91,290.77 444.44,338.97 113,22.62 146.14,39.18 146.14,69.31l0 3.02c0,28.62 -27.12,45.19 -90.39,45.19 -123.53,0 -254.61,-36.16 -369.12,-123.53l-188.32 224.48c134.09,117.51 326.94,177.78 540.87,177.78zm-1455.39 -19.59l906.98 0 0 -289.26 -560.46 0 0 -114.51 515.26 0 0 -254.61 -515.26 0 0 -106.97 552.92 0 0 -289.27 -899.45 0 0 1054.63z"/>
    <path class="fil0" d="M6387.7 5132.4l60.88 -161.75 60.9 161.75 -121.78 0zm-328.24 247.36l237.85 0 34.24 -89.44 233.1 0 35.2 89.44 241.65 0 -280.67 -670.75 -220.72 0 -280.66 670.75zm-777.29 0l217.87 0 0 -330.15 153.18 236.91 3.8 0 153.17 -236.91 0 330.15 221.68 0 0 -665.99 -232.14 0 -142.71 234.04 -142.71 -234.04 -232.14 0 0 665.99zm-457.63 -349.17l0 -130.34 97.05 0c51.38,0 84.67,20.93 84.67,63.74l0 1.9c0,40.91 -32.34,64.7 -85.62,64.7l-96.1 0zm-222.62 349.17l222.62 0 0 -190.28 45.67 0 1.91 0 125.59 190.28 254.02 0 -155.08 -226.44c80.87,-39 131.3,-106.56 131.3,-203.59l0 -1.91c0,-68.5 -20.93,-117.97 -60.89,-157.93 -46.62,-46.62 -121.79,-76.12 -239.75,-76.12l-325.38 0 0 665.99zm-423.37 -182.68c-85.63,0 -139.85,-71.35 -139.85,-150.33l0 -1.9c0,-78.01 53.27,-148.42 137.95,-148.42 85.63,0 139.85,71.35 139.85,150.32l0 1.91c0,78.01 -53.27,148.42 -137.95,148.42zm-1.9 196.94c205.5,0 364.38,-154.13 364.38,-347.27l0 -1.9c0,-193.13 -156.98,-345.36 -362.48,-345.36 -205.5,0 -364.38,154.13 -364.38,347.26l0 1.91c0,193.13 156.98,345.36 362.48,345.36zm-957.1 -14.26l222.62 0 0 -217.88 311.11 0 0 -173.15 -311.11 0 0 -84.68 334.89 0 0 -190.28 -557.51 0 0 665.99zm-481.41 -247.36l60.88 -161.75 60.9 161.75 -121.78 0zm-328.24 247.36l237.84 0 34.25 -89.44 233.1 0 35.2 89.44 241.65 0 -280.67 -670.75 -220.72 0 -280.66 670.75zm-334.9 0l222.63 0 0 -477.61 195.98 0 0 -188.38 -614.6 0 0 188.38 195.98 0 0 477.61zm-566.08 -247.36l60.89 -161.75 60.89 161.75 -121.78 0zm-328.24 247.36l237.85 0 34.25 -89.44 233.1 0 35.19 89.44 241.66 0 -280.67 -670.75 -220.72 0 -280.67 670.75zm-535.63 0l535.64 0 0 -190.28 -313.02 0 0 -475.71 -222.62 0 0 665.99zm-422.43 -339.66l0 -148.42 60.9 0c58.99,0 94.18,24.74 94.18,73.25l0 1.91c0,47.57 -38.06,73.25 -95.14,73.25l-59.94 0zm-222.62 339.66l222.62 0 0 -180.78 72.32 0c179.81,0 302.54,-85.63 302.54,-246.41l0 -1.9c0,-157.94 -120.83,-236.91 -297.79,-236.91l-299.7 0 0 665.99z"/>
    <polygon class="fil1" points="-0,4523.33 6841.51,4523.33 6841.51,4472.54 -0,4472.54 "/>
    <polygon class="fil1" points="-0,6902.12 6841.51,6902.12 6841.51,6851.3 -0,6851.3 "/>
    <path class="fil1" d="M-0 7236.97l1844.3 0 0 -50.8 -1844.3 0 0 50.8zm4997.22 0l1844.3 0 0 -50.8 -1844.3 0 0 50.8z"/>
   </g>
   <g>
    <path class="fil2" d="M3346.1 3498.4l-0.1 -1.9 25.01 -8.36c48.77,-16.32 88.13,-61.89 89.8,-114.32 2.73,-8.31 9.48,-20.48 12.9,-28.26 9.45,-21.45 16.09,-42.67 19.2,-65.39 21.57,11.08 44.01,21.59 65.94,31.16 23.09,10.09 52.02,28.07 72.47,42.85 29.47,21.3 66.86,44.78 99.64,60.14 10.74,5.03 29.74,16.47 38.2,24.63 39.42,39.34 104.68,46.36 155.52,27.42 9.76,-3.18 32.4,-7.18 44.06,-7.69 22.49,1.58 44.98,3.38 67.46,5.11 20.51,1.57 47.79,7.65 67.93,12.94 12.09,3.17 34.39,11.53 44.39,18.48 13.98,11.23 28.81,23.58 43.24,36.1 38.43,33.37 97.31,40.21 142,15.49 31.95,-17.67 69.32,-61.24 91.75,-90.71 25.61,-33.67 51.43,-67.22 77.41,-100.61 8.53,-10.97 26.55,-30.43 38.7,-38.43 5.64,-2.07 17.43,-4.21 22.65,-3.97 11.33,0.81 34.4,8.04 45.01,12.97 32.12,14.98 66.23,28.77 99.36,41.37 18.36,6.99 36.71,14.17 55.11,21.02 30.1,11.22 61.62,5.59 85.97,-15.36 24.36,-20.95 34.65,-51.27 28.06,-82.7l-4.28 -20.4c0.42,-4.39 0.13,-8.96 -0.85,-13.68l-148 -706.77c117.35,-215.09 234.85,-430.09 352.26,-645.12 10.44,-19.12 10.89,-75.6 1.54,-99.61 -4.92,-12.63 -13.33,-20.69 -26.16,-25.06 -15.65,-5.33 -31.36,-10.49 -47.06,-15.71 -16.41,-5.46 -40.92,-19.05 -53.21,-31.04 -0.64,-0.63 -1.18,-1.18 -1.78,-1.85 -21.3,-23.43 -62.2,-44.99 -92.53,-53.43 -7.42,-2.07 -15.29,-5.85 -21.78,-10.06 -5.91,-3.84 -10.19,-8.33 -13.74,-14.43 -17.85,-30.71 -56.65,-46.55 -91.16,-41.7 -0.83,0.11 -1.53,0.19 -2.36,0.26 -0.88,0.07 -1.82,0.13 -2.77,0.16 -6.26,-0.87 -12.58,-1.34 -18.9,-1.35 -7.59,-1.18 -15.07,-3.02 -20.57,-5.23 -0.68,-0.28 -1.26,-0.53 -1.93,-0.84 -14.91,-6.88 -35.36,-21.18 -46.98,-32.81 -18.23,-18.25 -35.25,-38.23 -51.18,-58.51 -19.55,-24.91 -55.2,-52.2 -86.43,-59.46 -10.12,-2.35 -18.05,-3.93 -27.47,-8.86 -4.76,-2.5 -8.45,-5.37 -12.05,-9.38 -19.92,-22.22 -37.86,-43.95 -51.34,-70.87 -9.73,-19.47 -21.52,-41.49 -35.11,-58.48 -1.47,-1.83 -2.6,-3.48 -3.76,-5.53 -6.55,-11.45 -11.74,-26.02 -15.69,-38.67 -4,-12.87 -7.41,-26.6 -10.18,-40.41l0 -20.47c1.82,-27.24 0.74,-60.16 -6.25,-90.2 -2.14,-27.17 -8.29,-55.69 -21.82,-73.06 -13.99,-17.94 -27.26,-36.47 -40.2,-55.18 -9.16,-13.25 -19.78,-31.57 -25,-46.68 -0.2,-0.57 -0.36,-1.06 -0.53,-1.63 -6.13,-20.35 -12,-40.77 -17.84,-61.19 -7.09,-24.82 -23.72,-57.44 -42.07,-75.78 -12.76,-12.75 -25.2,-25.87 -37.05,-39.45 -13.84,-15.83 -32.63,-32.24 -50.15,-43.86 -16.75,-11.14 -33.77,-21.85 -51.01,-32.21 -22.17,-13.31 -43.2,-28.86 -63.89,-44.36 -25.09,-18.8 -50.09,-37.72 -74.95,-56.83 -8.12,-6.25 -17.05,-16.26 -22.53,-24.93 -2.17,-3.42 -3.63,-6.59 -4.81,-10.47 -15.31,-50.41 -58.08,-78.12 -104.38,-97.49 -1.03,-0.44 -1.9,-0.83 -2.9,-1.34 -9.72,-4.95 -23.22,-16.1 -29.99,-24.66 -0.39,-0.5 -0.72,-0.93 -1.1,-1.44 -16,-22.05 -33.85,-43.22 -52.27,-63.29 -16.67,-18.18 -41.2,-40.79 -62.8,-52.76 -17.67,-9.78 -34.74,-20.75 -51.54,-31.93 -15.81,-10.55 -33.82,-25.57 -46.51,-39.69 -0.48,-0.53 -0.87,-1 -1.32,-1.54 -11.21,-13.75 -23.14,-39.04 -28.81,-56.08 -10.03,-30.17 -33.63,-69.87 -59.67,-88.78 -34.84,-25.28 -126.28,-34.85 -169.29,-39.67 -88.3,-9.89 -177.08,-15.32 -265.77,-20.08 -79.69,-4.28 -159.44,-7.59 -239.18,-10.7 -52.39,-2.04 -104.83,-3.45 -157.18,-6.68l-144.8 -8.94c-5.13,-0.31 -9.81,0.09 -14.2,1.26l-20.06 -1.24c-23.97,-1.48 -45.14,5.94 -62.94,22.07 -17.8,16.12 -27.27,36.46 -28.16,60.46l-7.07 190.8 -262.68 -15.72c-4.62,-0.27 -9.13,0.18 -13.39,1.27l-20.94 -1.25c-42.92,-2.58 -80.59,26.3 -89.24,68.42 -10.41,50.61 -20.79,101.22 -31.17,151.84 -14.1,68.71 -33.01,200.3 15.98,258.31 19.94,23.61 40.04,47.11 60.15,70.6 25.24,29.46 67.21,61.17 103.84,74.29 2.79,1.24 8.42,5.32 12.28,8.82 6.58,22.96 8.75,66.22 8.75,87.07 0,57.27 -1.21,116.47 -5.01,173.6 -4.07,61.4 -13.09,126.55 -22.54,187.38 -1.5,9.66 -3.1,19.3 -4.76,28.94 -5.87,33.96 -13.8,84.71 -25.14,116.79 -10.33,29.23 -19.52,60.08 -27.43,90.06 -9.42,35.65 -12.4,83.44 -8.09,120.08 5.17,43.81 6.12,93.39 7.23,137.61 1.26,49.39 2.58,99.17 2.58,148.57 0,32.93 3.03,73.04 9.48,105.2 3.08,15.37 6.86,31.33 11.13,47.11 -10.9,-2.89 -21.99,-5.21 -32.8,-6.56 -15.28,-1.91 -34.01,-2.56 -52.06,-1.51 -27.75,-1.49 -59.56,0.26 -83.72,6.29 -29.7,7.41 -66.15,25.7 -90.06,44.85 -58.56,46.9 -45.09,143.58 -25.89,206.47 17.8,58.34 59.05,137.04 115.51,165.57 1.56,1.46 3.27,3.68 4.37,5.21 1.84,2.59 4.6,7.12 5.34,10.14 8.98,47.14 39.77,104.47 75.01,137.37 2.92,2.73 7.06,9.03 8.97,13.65 -1.05,24.84 0.75,55.04 6.06,79.57 -0.9,3.55 -2.6,7.86 -4.05,10.28 -33.67,56.04 -20.03,132.73 18.81,182.71 24.09,30.99 63.03,70.88 100.51,83.32 50.8,16.88 55.87,12.92 104.76,2.49 5.03,-1.08 11.99,-2.18 18.89,-2.93 24.5,31.47 65.59,55.17 101.14,67.6 0.93,0.5 3.06,2.39 4.51,4.05 7.87,38.88 29.94,84.53 55.8,114.46 10.05,20.13 16.29,65.9 17.39,87.91 2.3,45.72 4.16,92.4 7.97,137.98 4.59,54.84 49.66,101.22 99.55,119.98 31.59,11.87 68.05,21.58 101.08,28.59 4.21,0.89 8.39,1.48 12.55,1.77 11.89,3.08 27.24,8.24 40.1,13.16 4.86,20.89 13.52,42.58 24.55,59.47 2.09,51.83 43.64,94.46 88.51,115.37 4.94,2.4 14.87,11.02 18.31,15.78 13.61,25.2 29.84,51.27 46.13,74.76 7.75,11.18 15.47,22.36 23.17,33.56 14.01,20.39 33.72,32.68 58.2,36.3 24.48,3.62 46.9,-2.44 66.21,-17.89 1.13,-0.9 2.27,-1.83 3.39,-2.75 8.02,-0.5 17.38,-0.07 23.69,0.49 53.03,4.74 119.7,-14.31 160.05,-49.32 26.81,-23.27 59.73,-60.03 72.81,-92.74 10.06,-25.18 15.58,-60.47 16.43,-89.14 12.24,-11.55 23.23,-24.64 32.26,-36.67 18.16,-24.15 37.43,-59.74 45.34,-88.7 8.41,-30.76 8.23,-72.35 0.47,-103.31l-0.44 -1.72z"/>
    <path class="fil3" d="M2455.73 323.72l-384.62 -23.02c0,0 -14.01,68.25 -31.16,151.8 -17.13,83.49 -18.24,167.06 -2.54,185.63 15.71,18.59 42.63,50.13 59.77,70.15 17.12,19.99 47.55,42.19 67.56,49.31 20.04,7.22 45.75,27.09 57.18,44.22 11.43,17.13 20.79,76.77 20.79,132.53 0,55.71 -2.35,136.41 -5.2,179.29 -0.89,13.47 -2.54,31.36 -4.7,51.56l47.92 9.52c3.39,0.68 6.17,1.94 8.91,4.04l112.28 86.45c6.46,4.98 9.43,12.57 8.07,20.6 -1.36,8.04 -6.68,14.22 -14.42,16.79l-20.18 6.68 6.02 14.53 99.87 12.41c7.02,0.86 12.67,4.68 16.11,10.86l66.84 120.03 26.67 0c4.95,0 9.2,1.45 13.13,4.48l19.47 15.04 93.31 0 -1.36 -21.79c-0.41,-6.4 1.74,-12.05 6.28,-16.57 4.53,-4.51 10.2,-6.63 16.59,-6.2l471.08 31.91 0 -27.23c0,-2.64 0.4,-4.9 1.31,-7.38l24.03 -65.66c-4.73,-2.51 -8.41,-6.79 -10.22,-12.23l-68.64 -207.31 -55.57 -57.84c-2.61,-2.72 -4.26,-5.63 -5.24,-9.28l-50.53 -186.83c-0.54,-2.01 -0.77,-3.8 -0.74,-5.88l5.62 -437.85 5.62 -382.03c0,-0.47 0.02,-0.87 0.06,-1.34l0.08 -1.03c-182.66,-10.79 -377.8,-15.97 -444.23,-20.08l-144.8 -8.93 -10.41 280.66z"/>
    <path class="fil4" d="M2227.9 1207.99c-4.12,33.89 -9.01,69.85 -13.78,100.51 -10.01,64.33 -25.22,136.84 -33.79,161.16 -8.32,23.46 -19.48,60.25 -25.37,83.35 -6.66,24.47 -8.8,62.97 -5.82,88.11 2.84,24.24 6.39,89.72 7.79,145.48 1.43,55.77 2.61,123.6 2.61,150.74 0,27.16 3.47,66.86 7.79,88.32 4.28,21.42 13.64,56.52 20.77,77.96 7.14,21.44 0.14,55.38 -15.56,75.38 -15.74,19.97 -47.31,27.03 -70.16,15.59 -22.84,-11.4 -60.3,-23.14 -83.13,-26.01 -22.88,-2.84 -55.61,-1.64 -72.77,2.61 -17.15,4.32 -42.88,17.13 -57.16,28.55 -14.32,11.48 -13.11,62.94 2.56,114.38 15.73,51.39 48.5,102.83 72.81,114.33 12.38,5.83 24.84,17.63 34.85,31.66 9.58,13.43 16.87,29.05 19.75,43.7 5.63,30 27.87,70.93 49.3,90.91 21.45,20.06 37.82,53.94 36.42,75.39 -1.45,21.43 0.85,51.82 5.17,67.55 4.33,15.74 -2.72,46.11 -15.61,67.56 -12.87,21.42 -7,59.99 13,85.77 19.99,25.69 46.89,50.24 59.76,54.53 33.26,11.04 22.12,8.03 59.76,0 20,-4.29 48.09,-6.66 62.37,-5.2 14.25,1.4 31.84,14.28 38.97,28.56 7.13,14.32 36.39,34.19 64.97,44.25 28.57,9.94 55.46,39.19 59.75,64.95 4.3,25.67 21.83,61.91 38.99,80.51 5.3,5.74 10.52,15.65 15.29,28.26l1.05 -11.24c1.95,-19.87 3.59,-39.89 4.85,-59.81 0.42,-6.85 3.66,-12.54 9.32,-16.41l39.72 -27.14 50.87 -119.7c3.44,-8.1 10.96,-13.07 19.76,-13.07l6.6 0 0 -48.18 -18.86 -13.12c-4.65,-3.23 -7.55,-7.59 -8.74,-13.13l-28.07 -131.06c-2.2,-10.27 3.18,-20.43 12.91,-24.38l54.63 -22.2 15.98 -29.49c3.85,-7.11 10.79,-11.24 18.87,-11.24l30.88 0c9.57,0 17.68,5.97 20.51,15.12l6.85 22.11 162.05 10.22c11.11,0.7 19.8,9.69 20.11,20.83l2.44 87.1 25.75 11.94 46.08 0 12.64 -48.13c1.87,-7.11 6.73,-12.37 13.65,-14.8l47.72 -16.73c2.39,-0.84 4.56,-1.21 7.1,-1.21l25.28 0 -8.92 -24.05c-2.85,-7.7 -1.3,-15.79 4.22,-21.87l12 -13.25 -18.72 -20.04 -69.73 -17.96c-11.35,-2.93 -18.27,-14.47 -15.5,-25.86l39.29 -161.74c2.74,-11.27 13.95,-18.33 25.29,-15.94l88.97 18.76 73.29 -10.12 -28.81 -108.38 -25.59 0c-6.12,0 -11.37,-2.27 -15.59,-6.7 -4.2,-4.44 -6.18,-9.81 -5.85,-15.92l2.8 -52.97c0.6,-11.41 10.01,-20.33 21.44,-20.33l16.95 0 7.14 -28.4c1.46,-5.81 4.83,-10.28 10.01,-13.3 5.18,-3.03 10.74,-3.75 16.52,-2.15l30.05 8.29 5.35 -18.62c2.68,-9.34 10.92,-15.53 20.63,-15.53l79.58 0 0 -56.04 -30.15 -29.95c-4.22,-4.19 -6.34,-9.3 -6.34,-15.23l0 -41.79 -62.99 -27.81c-5.72,-2.53 -9.69,-6.88 -11.67,-12.81l-28.07 -83.66c-1.1,-3.26 -1.38,-6.28 -0.93,-9.69l10.73 -79.86 -32.85 -146.84c-0.37,-1.62 -0.52,-3.03 -0.52,-4.68l0 -141.67 -449.58 -30.46 1.27 20.2c0.39,6.14 -1.56,11.56 -5.77,16.04 -4.22,4.48 -9.51,6.77 -15.66,6.77l-123.49 0c-4.95,0 -9.2,-1.44 -13.13,-4.47l-19.47 -15.05 -31.97 0c-8,0 -14.86,-4.03 -18.75,-11.02l-67.69 -121.54 -101.46 -12.6c-7.87,-0.99 -14.15,-5.75 -17.19,-13.09l-19.65 -47.41c-2.38,-5.72 -2.27,-11.52 0.3,-17.15 2.58,-5.63 6.9,-9.51 12.77,-11.45l3.72 -1.23 -76.25 -58.7 -39.52 -7.85z"/>
    <path class="fil5" d="M2524.92 3259.15c1.75,12.28 3,24.82 3.62,37.13 2.88,57.13 6.37,118.01 7.77,135.14 1.46,17.12 21.32,38.17 44.19,46.75 21.63,8.16 60.39,18.96 88.72,24.98 2.54,-3.81 76.64,22.22 85.37,26.97 15.71,8.62 29.74,27.28 31.19,41.54 1.39,14.35 8.42,34.22 15.6,44.25 7.12,10.02 12.97,28.72 12.97,41.53 0,12.87 17.55,31.6 38.99,41.61 21.44,9.96 47.16,33.38 57.14,51.96 10.02,18.58 28.74,48.99 41.6,67.49 12.84,18.58 23.36,33.83 23.36,33.83 0,0 7.06,-5.84 15.63,-12.96 8.55,-7.13 41.28,-10.62 72.76,-7.77 31.39,2.77 74.68,-10.02 96.12,-28.64 21.43,-18.59 43.64,-45.48 49.35,-59.76 5.7,-14.25 10.41,-43.48 10.41,-64.95 0,-21.44 5.82,-41.35 12.96,-44.19 7.2,-2.81 23.51,-19.26 36.4,-36.39 12.85,-17.13 26.89,-44 31.16,-59.75 4.35,-15.76 4.35,-42.57 0,-59.76 -4.27,-17.13 -8.98,-42.86 -10.37,-57.17 -1.4,-14.26 11.45,-30.63 28.6,-36.34 17.11,-5.7 45.2,-15.08 62.3,-20.8 17.15,-5.73 31.22,-22.11 31.22,-36.35 0,-34.81 30.84,-61.02 33.81,-111.79 1.41,-24.29 10.75,-45.3 20.77,-46.76 9.97,-1.45 26.38,-9.65 36.32,-18.23 10.06,-8.54 33.46,-7.36 51.97,2.68 18.6,9.97 52.55,26.34 75.36,36.36 22.92,9.95 62.65,33.37 88.4,51.95 25.69,18.58 64.34,41.94 85.76,51.97 21.39,10.01 49.44,28.72 62.38,41.54 5.14,5.17 12.94,8.83 21.9,10.8l0 -36.54c0,-6.51 2.59,-12.12 7.55,-16.35l29.41 -25.03 -8.36 -36.85c-2.46,-10.87 3.72,-21.74 14.33,-25.17l130.36 -42.19 -79.93 -121.45c-5.93,-9.01 -4.33,-20.84 3.78,-27.95l79.41 -69.62 -110.57 -128.17 -24.87 10.59c-9.91,4.22 -21.22,0.56 -26.78,-8.65l-96.39 -159.6 -109.12 -25.81c-7.04,-1.67 -12.35,-6.27 -15.03,-12.99l-26.28 -66.48 -58.51 -8.31 -13.3 8.26 16.91 14.4c5.25,4.48 7.87,10.56 7.52,17.45l-5.62 108.75c-0.27,5.26 -2.15,9.7 -5.75,13.55l-30.7 32.85 0 64.04c0,4.36 -1.12,8.1 -3.51,11.74l-36.48 55.78c-3.54,5.41 -8.71,8.67 -15.1,9.52 -6.4,0.86 -12.24,-0.9 -17.08,-5.18l-42.8 -37.8 -54.42 9.41c-5.03,0.87 -9.62,0.09 -14.09,-2.4l-48.04 -26.73 -53.23 149.05c-2.36,6.57 -7.2,11.23 -13.88,13.29l-126.31 39.04c-5.95,1.84 -11.79,1.17 -17.17,-1.98l-95.43 -55.77c-5.64,-3.29 -9.17,-8.37 -10.31,-14.8 -1.14,-6.42 0.45,-12.41 4.61,-17.43l18.1 -21.84 -18.51 -5.11c-7.76,-2.14 -13.33,-7.91 -15.18,-15.75l-7.32 -30.89 -50.39 0c-3.26,0 -6.07,-0.62 -9.02,-1.99l-42.11 -19.52c-7.57,-3.52 -12.19,-10.54 -12.43,-18.88l-2.26 -80.8 -157.28 -9.92c-9.06,-0.57 -16.46,-6.39 -19.15,-15.08l-6.54 -21.13 -2.27 0 -5.09 9.39c-1.97,3.63 -4.53,6.27 -8.11,8.33l-56.73 32.91 23.03 107.53 21.1 14.67c5.95,4.15 9.22,10.37 9.22,17.63l0 80.87c0,11.83 -9.64,21.47 -21.47,21.47l-13.87 0 -47.77 112.42c-1.68,3.94 -4.11,6.91 -7.65,9.33l-37.07 25.33 -15.52 110.51c-0.77,5.48 -3.24,9.94 -7.49,13.48l-6.79 5.68z"/>
    <path class="fil5" d="M3931.59 3343.08l0.1 -0.03c16.53,-6.15 62.76,-14.03 77.94,-13.04 20.04,1.47 51.56,3.83 70.13,5.3 18.58,1.38 56.01,8.42 83.2,15.5 27.15,7.19 61.01,22.34 75.27,33.78 14.37,11.47 35.35,29.05 46.81,39 11.45,9.94 31.28,12.3 44.18,5.19 12.88,-7.14 42.12,-37.54 64.96,-67.56 22.84,-30 57.94,-75.6 77.96,-101.32 20.02,-25.75 50.41,-53.79 67.57,-62.35 17.12,-8.56 47.52,-14.47 67.56,-13 20,1.41 53.88,10.81 75.3,20.82 21.46,9.98 63.58,27.53 93.6,38.93 30.02,11.44 54.56,20.82 54.56,20.82l-161.05 -769.13c60.13,-110.23 120.3,-220.44 180.48,-330.64l-639.7 0c-10.69,0 -19.62,-7.66 -21.22,-18.23l-11.26 -73.79 -254.9 0 -33.59 14.83 0 30.62c0,6.34 -2.45,11.8 -7.17,16.02 -4.73,4.23 -10.43,6.03 -16.73,5.3l-49.06 -5.62 0 9.39c0,10.15 -6.84,18.7 -16.74,20.94l-37.97 8.57 39.37 108.15c3.3,9.05 0.39,18.81 -7.34,24.56l-134.73 100.39c-3.87,2.89 -8.01,4.26 -12.83,4.26l-24.75 0 -5.9 93.92 58.94 8.36c7.84,1.12 14.03,5.99 16.95,13.36l26.75 67.66 106.98 25.3c5.83,1.38 10.34,4.67 13.43,9.79l91.42 151.36 22.15 -9.42c8.73,-3.73 18.45,-1.47 24.66,5.72l134.73 156.17c7.68,8.9 6.74,22.41 -2.1,30.16l-81.37 71.33 85.15 129.38c3.8,5.78 4.61,12.38 2.32,18.92 -2.3,6.53 -7.05,11.18 -13.64,13.31l-138.51 44.84 6.89 30.38c1.81,7.99 -0.78,15.79 -7.02,21.09l-31.75 27.04 0 23.66z"/>
    <path class="fil4" d="M4873.16 2123.25l165.39 -302.85c0,0 -21.01,-7.04 -46.76,-15.6 -25.69,-8.56 -58.41,-28.47 -72.69,-44.21 -14.28,-15.68 -47.07,-34.4 -72.79,-41.5 -25.75,-7.22 -52.57,-25.88 -59.75,-41.61 -7.16,-15.73 -29.35,-26.19 -49.44,-23.41 -19.96,2.84 -51.5,-1.78 -70.09,-10.34 -18.58,-8.56 -45.49,-27.28 -59.76,-41.63 -14.32,-14.27 -38.85,-42.31 -54.59,-62.36 -15.69,-19.98 -43.79,-39.84 -62.36,-44.13 -23.01,-5.35 -36.07,-9.39 -54.58,-23.41 -25.95,-28.74 -47.24,-53.01 -64.96,-88.31 -9.99,-20.07 -24.06,-43.4 -31.16,-51.97 -10.2,-12.19 -21.34,-42.21 -26.01,-57.16 -7.1,-22.9 -15.28,-62.7 -18.16,-88.37l0 -31.21c2.88,-37.11 -2.96,-78.04 -12.97,-90.92 -10.05,-12.87 -28.77,-38.64 -41.64,-57.15 -12.81,-18.59 -26.82,-45.5 -31.15,-59.78 -2.72,-9.06 -6.99,-23.59 -11.21,-38.11l-51.57 183.6c-1.78,6.31 -5.82,11.02 -11.78,13.74 -5.96,2.71 -12.18,2.66 -18.09,-0.14l-188.06 -89.24c-4.9,-2.32 -8.36,-5.9 -10.51,-10.89l-39.89 -92.44 -51.12 37.25 69.93 315.33c1.45,6.57 0,12.83 -4.22,18.08 -4.22,5.25 -10.02,8.04 -16.74,8.04l-201.99 0 -141 80.81c-3.39,1.95 -6.76,2.84 -10.68,2.84l-243.22 0 -27.22 74.36 0 205.75 33.16 148.27c0.58,2.6 0.68,4.91 0.33,7.54l-10.57 78.71 23.47 69.94 67.13 29.64c7.95,3.52 12.79,10.95 12.79,19.64l0 46.84 30.15 29.95c4.22,4.19 6.34,9.3 6.34,15.23l0 86.45c0,11.83 -9.64,21.47 -21.47,21.47l-84.89 0 -6.76 23.5c-3.25,11.29 -15.03,17.89 -26.34,14.76l-29.36 -8.1 -5.86 23.33c-2.44,9.66 -10.85,16.23 -20.82,16.23l-13.32 0 -0.53 10.04 19.46 0c9.87,0 18.22,6.42 20.75,15.95l39.3 147.8c1.64,6.17 0.66,12.1 -2.88,17.41 -3.53,5.3 -8.63,8.5 -14.94,9.38l-101.05 13.94c-2.57,0.36 -4.83,0.27 -7.36,-0.25l-72.26 -15.23 -29.38 120.92 55.28 14.24c4.14,1.07 7.42,3.01 10.33,6.14l36.49 39.03c7.64,8.18 7.74,20.77 0.22,29.07l-16.52 18.23 15.12 40.76c2.52,6.8 1.64,13.78 -2.5,19.73 -4.15,5.94 -10.38,9.2 -17.63,9.2l-52.48 0 -33.51 11.74 -12.59 47.93 7.07 29.82 38.27 10.56c7.23,2 12.52,7.1 14.76,14.25 2.26,7.16 0.84,14.37 -3.94,20.15l-23.16 27.93 65.45 38.25 107.01 -33.08 58.13 -162.78c2.2,-6.15 6.55,-10.57 12.66,-12.86 6.12,-2.31 12.29,-1.85 18,1.33l63.55 35.35 57.09 -9.86c6.63,-1.15 12.81,0.6 17.86,5.06l31.93 28.19 19.41 -29.66 0 -66.1c0,-5.66 1.92,-10.53 5.78,-14.66l31.14 -33.32 4.66 -90.34 -31.23 -26.59c-5.38,-4.59 -8.02,-10.89 -7.49,-17.95 0.53,-7.06 4.07,-12.9 10.08,-16.63l35.51 -22.05 7.72 -122.8c0.72,-11.33 10.08,-20.12 21.43,-20.12l37.79 0 116.21 -86.59 -42.26 -116.05c-2.18,-6 -1.74,-12.03 1.33,-17.64 3.06,-5.61 7.88,-9.25 14.11,-10.65l45.01 -10.17 0 -16.3c0,-6.34 2.45,-11.8 7.18,-16.02 4.73,-4.23 10.43,-6.03 16.73,-5.3l49.06 5.62 0 -20.54c0,-8.7 4.85,-16.12 12.8,-19.64l50.53 -22.31c2.85,-1.26 5.54,-1.83 8.67,-1.83l277.87 0c10.69,0 19.62,7.67 21.22,18.24l11.26 73.78 638.36 0c2.08,0 3.86,0.25 5.86,0.82l0.04 0.01z"/>
    <path class="fil3" d="M4172.36 843.46c-4.01,-6.34 -8.16,-11.83 -12,-15.7 -11.51,-11.43 -29.03,-30.13 -39.03,-41.55 -9.96,-11.43 -28.66,-27.8 -41.56,-36.36 -12.86,-8.55 -35.08,-22.65 -49.37,-31.16 -14.25,-8.62 -44.71,-29.67 -67.52,-46.8 -22.92,-17.13 -56.78,-42.9 -75.38,-57.17 -18.61,-14.33 -37.26,-38.89 -41.56,-54.56 -10.51,-38.42 -46.35,-58.45 -80.57,-72.77 -17.12,-7.16 -40.55,-25.83 -51.96,-41.56 -11.43,-15.72 -33.62,-42.62 -49.36,-59.75 -15.74,-17.18 -39.06,-37.05 -51.97,-44.22 -12.86,-7.1 -37.48,-22.34 -54.53,-33.76 -17.22,-11.41 -41.78,-32.48 -54.67,-46.75 -12.8,-14.35 -30.37,-47.02 -38.92,-72.77 -8.57,-25.77 -28.42,-56.15 -44.15,-67.57 -29.98,-21.76 -167.17,-36.23 -321.77,-46.29l-0.08 1.01 -11.18 816.15 48.3 178.63 55.14 57.38c2.33,2.42 3.85,4.95 4.91,8.13l65.29 197.21 256.66 0 141 -80.82c3.39,-1.94 6.76,-2.83 10.67,-2.83l180.96 0 -67.19 -302.94c-1.88,-8.52 1.27,-16.87 8.32,-22l84.21 -61.36c5.46,-3.97 11.8,-5.14 18.3,-3.36 6.51,1.79 11.38,6.01 14.05,12.21l47.32 109.7 157.76 74.86 59.89 -213.25z"/>
    <path class="fil2" d="M2830.69 2185.09c-20.08,9.79 -42.19,14.92 -64.85,14.92 -81.77,0 -148.07,-66.3 -148.07,-148.07 0,-58.39 34.21,-110.41 85.63,-134.31l-61.88 -959.19c-60.51,-19.08 -103.41,-75.7 -103.41,-141.22 0,-81.77 66.31,-148.07 148.08,-148.07 40.66,0 78.9,16.6 106.52,45.21l456.63 -191.42c-0.04,-1.29 -0.05,-2.58 -0.05,-3.87 0,-81.77 66.3,-148.07 148.07,-148.07 81.77,0 148.08,66.3 148.08,148.07 0,54.12 -29.42,103.09 -75.27,128.98l157.48 1092.87c65.92,15.2 114.64,74.29 114.64,144.28 0,21.76 -4.74,43.06 -13.83,62.52l402.32 419.88c17.9,-7.43 37.14,-11.27 56.75,-11.27 81.77,0 148.08,66.3 148.08,148.07 0,81.77 -66.31,148.07 -148.08,148.07 -22.96,0 -45.36,-5.27 -65.66,-15.32l-265.55 242.76c6.58,16.98 9.99,35.09 9.99,53.52 0,81.77 -66.31,148.07 -148.08,148.07 -81.77,0 -148.07,-66.3 -148.07,-148.07 0,-18.73 3.51,-37.14 10.31,-54.38l-749.77 -693.97zm148.94 -121.43l604.39 192.36 -26.9 -227.45c-36.16,-9.35 -67.51,-32.11 -87.64,-63.51l-489.85 98.6zm-111.6 -118.87c8.56,8.17 16.12,17.33 22.51,27.3l557.75 -112.27c2.73,-15.77 8,-30.96 15.61,-45.02l-365.31 -429.66 -230.56 559.65zm-63.55 -127.54l215.91 -524.08 -270.22 -317.83 54.31 841.91zm843.32 977.89l-49.94 -422.07 -618.87 -196.96 668.81 619.03zm107.49 -5.08c9.88,2.54 19.45,6.11 28.59,10.63l265.55 -242.76c-5.49,-14.12 -8.76,-29.02 -9.7,-44.23l-329.55 -104.89 45.11 381.25zm247.63 -400.73l-336.6 -351.29 30.01 253.71 306.59 97.58zm-488.4 -680.69l-142.31 -987.67 -227.64 552.55 369.95 435.13zm-680.33 -895.28c0.04,1.29 0.05,2.58 0.05,3.86 0,24.8 -6.15,48.91 -17.78,70.39l249.9 293.93 228.78 -555.32c-1.47,-1.39 -2.92,-2.83 -4.33,-4.3l-456.63 191.44z"/>
    <path class="fil6" d="M3683.52 2822.85l-56.1 -474.17 -759.56 -241.73c-1.21,2.25 -2.5,4.45 -3.85,6.6l785.23 726.79c10.26,-7.61 21.81,-13.57 34.29,-17.49zm-903.59 -885.92c3.19,0.39 6.34,0.89 9.45,1.53l268.27 -651.19 -314.05 -369.37c-8.88,5.08 -18.5,9.01 -28.66,11.6l64.99 1007.43zm49.14 17.9c19.69,12.85 35.24,31.54 44.19,53.59l605.08 -121.81 -0.01 -1.41c0,-27.6 9.65,-52.94 25.76,-72.85l-415.15 -488.29 -259.86 630.77zm52.63 95.7l0.01 1.42c0,4.76 -0.29,9.46 -0.85,14.07l741.02 235.84 -35.62 -301.07c-45.15,-3.05 -83.21,-31.97 -99.48,-72.06l-605.08 121.8zm-46.87 94.53c-19.27,14.31 -43.14,22.77 -69,22.77 -63.99,0 -115.86,-51.88 -115.86,-115.87 0,-54.07 37.03,-99.49 87.11,-112.28l-64.99 -1007.43c-57.35,-6.95 -101.78,-55.79 -101.78,-115.02 0,-63.99 51.88,-115.86 115.87,-115.86 40.41,0 75.98,20.69 96.71,52.04l501.13 -210.1c-1.67,-7.81 -2.55,-15.92 -2.55,-24.23 0,-64 51.88,-115.87 115.87,-115.87 64,0 115.87,51.88 115.87,115.87 0,50.88 -32.79,94.09 -78.38,109.67l164.38 1140.7c61.67,2.62 110.85,53.44 110.85,115.76 0,25.13 -8,48.38 -21.58,67.36l435.75 454.77c18.2,-11.89 39.93,-18.8 63.29,-18.8 64,0 115.87,51.88 115.87,115.87 0,64 -51.88,115.87 -115.87,115.87 -26.1,0 -50.18,-8.64 -69.55,-23.2l-301.21 275.36c10.98,17.71 17.33,38.61 17.33,60.99 0,64 -51.88,115.87 -115.87,115.87 -64,0 -115.87,-51.88 -115.87,-115.87 0,-22.64 6.5,-43.76 17.72,-61.6l-785.23 -726.79zm891.33 672.79c23.04,1.55 44.23,9.84 61.62,22.92l301.21 -275.36c-10.99,-17.72 -17.34,-38.61 -17.34,-60.99 0,-4.76 0.29,-9.46 0.85,-14.07l-400.16 -127.35 53.82 454.86zm359.35 -368.43c2.33,-4.3 4.91,-8.42 7.73,-12.37l-435.76 -454.77c-8.77,5.74 -18.37,10.31 -28.58,13.51l37.91 320.37 418.7 133.26zm-548.73 -664.88c6.3,-3.6 12.96,-6.61 19.92,-9l-164.37 -1140.69c-6.32,-0.27 -12.51,-1.04 -18.52,-2.28l-266.49 646.86 429.46 505.11zm-737.27 -991.54c1.67,7.81 2.55,15.92 2.55,24.23 0,27.6 -9.66,52.94 -25.77,72.85l299.76 352.55 258.07 -626.44c-13.31,-8.68 -24.73,-20.03 -33.49,-33.28l-501.13 210.1z"/>
   </g>
  </g>
 </g>
</svg>
